<svg xmlns="http://www.w3.org/2000/svg" viewBox="0 0 216.87 214.24"><defs><style>.cls-1{fill:#020a2e;}</style></defs><g id="Layer_2" data-name="Layer 2"><g id="Layer_1-2" data-name="Layer 1"><path class="cls-1" d="M215.91,178c-9.73-9.64-19.4-19.35-29.1-29a7.89,7.89,0,0,1-2.06-3.09q-4-12.09-8.07-24.14a2.2,2.2,0,0,1,.69-2.71c1.64-1.49,3.18-3.1,4.72-4.7a10.66,10.66,0,1,0-15-15.15c-1.61,1.53-3.19,3.09-4.7,4.72a2.36,2.36,0,0,1-2.91.69c-6.2-2.16-12.45-4.18-18.67-6.31a3.72,3.72,0,0,0-3.12.23q-15.23,7.71-30.51,15.28a2.13,2.13,0,0,0-1.41,2.17q.09,11.45,0,22.88c0,1.28.4,1.61,1.63,1.59,3.92-.08,7.85-.05,11.77,0,.58,0,1.61-.38,1.61.61,0,2,.64,4-1.25,5.77-4.21,3.94-8.22,8.12-12.29,12.21-.51.51-1.16.93-1.32,1.73-1.19,6-2.4,12-3.67,18.34,5.75-1.15,11.16-2.3,16.6-3.27a7.21,7.21,0,0,0,4.12-2.3c2.36-2.46,4.87-4.77,7.18-7.27,1.27-1.39,2-1.6,3.51-.1,15.65,15.77,31.4,31.43,47.06,47.18,1.29,1.29,1.89,1.1,3-.07q16-16.15,32.21-32.18C217.25,179.82,217.1,179.19,215.91,178Zm-44.07-73.55c1.24-1.24,2.59-1.76,4.19-1.08,1.38.58,2.21,1.69,2.26,3.84,0,.65-.61,1.51-1.42,2.32Q165,121.39,153.19,133.26c-.91.92-1.43.89-2.24,0-1.15-1.33-3.26-2.47-3.42-3.87s2.09-2.59,3.31-3.82C157.82,118.48,164.86,111.5,171.84,104.47Zm-51.25,21c.06,2.07,0,4.14,0,6.21,0,1.19-.2,1.78-1.55,1.66-2-.17-4.5.79-5.78-.37s-.32-3.62-.37-5.52c-.06-2.37,0-4.74,0-7.1a1.92,1.92,0,0,1,1.24-2q12.21-6,24.37-12.17a2.72,2.72,0,0,1,2.12-.32c4.88,1.62,9.74,3.27,14.87,5-4.39,4.38-8.57,8.55-12.74,12.73-.51.53-1,.72-1.42,0-2.28-3.86-5.68-2.88-9-2.15s-6.69,1.58-10.08,2.07C120.75,123.69,120.57,124.27,120.59,125.46Zm-8.27,40c1,.19,1.33,1.11,2,1.61s1.33.94,2,1.41C111.2,170.19,111.2,170.19,112.32,165.43Zm13-4.31c-3.42,3.44-3.33,3.34-6.9,0-1.54-1.42-1.19-2.12.1-3.36,3.43-3.27,3.37-3.32,6.76,0a17.12,17.12,0,0,0,1.85,1.38C126.27,160.07,125.79,160.61,125.28,161.12ZM151,173.57q-10.94-11-22-22a3.26,3.26,0,0,1-1-2.55c.07-6,.17-12,.11-18,0-1.32.78-1.43,1.56-1.63,1.56-.38,3.15-.62,4.72-1a2.71,2.71,0,0,1,2.68,1.09c4.53,4.57,9.15,9.06,13.61,13.7,1.22,1.28,1.77,1,2.88-.06,5.65-5.63,11.4-11.16,17.23-16.84,2.28,6.84,4.59,13.84,7,20.82a2,2,0,0,1-.62,2.32q-12,12-24,24C152.31,174.32,151.86,174.45,151,173.57Zm55.3,7.06q-11.46,11.46-22.92,23c-.87.88-1.38.94-2.28,0q-11.42-11.52-22.94-22.93c-1-1-.76-1.44.08-2.27q11.43-11.35,22.77-22.79c1-1,1.47-1,2.45,0,7.54,7.64,15.16,15.21,22.75,22.81.35.35.69.73,1.08,1.15C206.89,180,206.6,180.32,206.29,180.63Z"/><path class="cls-1" d="M51.67,71.12q20.22,0,40.43,0a11.23,11.23,0,0,0,11.12-11q0-24.66,0-49.31A11.19,11.19,0,0,0,92.21,0H11.56A11.19,11.19,0,0,0,.11,11.52c0,15.85.2,31.7-.11,47.53A12.18,12.18,0,0,0,12.13,71.21C25.3,70.91,38.49,71.12,51.67,71.12ZM7.18,19.44c.14-2.73,0-5.47,0-8.21,0-3.18.92-4.11,4.07-4.11H91.88c3.35,0,4.22.88,4.23,4.19,0,2.59-.12,5.18,0,7.76.11,1.8-.33,2.33-2.24,2.32-14.13-.09-28.27-.05-42.4-.05h0c-14.14,0-28.27,0-42.4,0C7.56,21.38,7.1,21,7.18,19.44ZM11.77,64C8,64,7.22,63.23,7.22,59.47c0-9.62,0-19.24,0-28.86,0-1.65.29-2.22,2.11-2.2,14.14.09,28.28.05,42.42,0s28.27,0,42.41,0c1.68,0,2,.42,2,2.06-.09,9.77,0,19.54-.06,29.31,0,3.33-.87,4.22-4.17,4.22Z"/><path class="cls-1" d="M164.37,204.37c-.52-.63-.91-.7-1.6-.15-2.06,1.65-4.5,2-7.09,2q-58.87,0-117.75,0H35.4a19.1,19.1,0,0,0,3.85-11.8q-.06-57.31,0-114.63c0-5.15,0-5.07-5.12-5.16-1.66,0-2,.38-2,2,.07,15.78,0,31.55,0,47.32q0,35.65,0,71.31c0,5.23-2.62,9-7,10.44-1.2.39-3-.2-3.54,1s-.12,2.62-.12,4a4.4,4.4,0,0,1,0,.89c-.28,1.53.46,1.77,1.83,1.76,9.18-.06,18.37,0,27.55,0H156.12a18.79,18.79,0,0,0,11-3.49c.68-.48,1.45-.84.48-1.83C166.46,206.87,165.42,205.61,164.37,204.37Z"/><path class="cls-1" d="M112.29,7.16c12.3-.06,24.59,0,36.88,0h21.91a19.78,19.78,0,0,0-3.89,12.67c.09,21.4,0,42.8,0,64.2,0,4.92,0,4.83,4.88,5,1.85,0,2.29-.44,2.29-2.28-.08-21,0-42.06-.1-63.09,0-1.84.39-2.31,2.26-2.29,8.14.12,16.29.06,24.44,0,.74,0,1.69.5,1.83-1.08A18.56,18.56,0,0,0,184.36,0H115.49c-5.2,0-5.13,0-5.2,5.28C110.27,6.94,110.83,7.16,112.29,7.16Zm72.82,0c5,0,8.67,2.64,9.87,7.11H175C176.23,9.72,180,7.1,185.11,7.12Z"/><path class="cls-1" d="M119.23,56.93c6.44-.08,12.89,0,19.33,0,6.59,0,13.18,0,19.77,0,1.44,0,1.83-.34,1.83-1.81q-.1-19.54,0-39.09c0-1.42-.32-1.85-1.8-1.84q-19.56.09-39.11,0c-1.43,0-1.83.34-1.83,1.81q.09,19.54,0,39.09C117.4,56.56,117.78,57,119.23,56.93Zm6.9-35.62q12.66.09,25.32,0c1.26,0,1.61.34,1.59,1.59-.08,4.29,0,8.58,0,12.88,0,4.14,0,8.29,0,12.43,0,1.26-.34,1.6-1.59,1.59q-12.66-.08-25.32,0c-1.25,0-1.59-.33-1.58-1.59q.08-12.66,0-25.31C124.52,21.65,124.88,21.3,126.13,21.31Z"/><path class="cls-1" d="M155,85.34c5.15,0,5.07,0,5.17-5.13,0-1.71-.47-2-2.08-2-15.33.06-30.66,0-46,0q-21.54,0-43.1,0c-4.92,0-4.82,0-5,4.91,0,1.89.51,2.26,2.31,2.25Q110.69,85.29,155,85.34Z"/><path class="cls-1" d="M128.17,94.81c.05-1.9-.38-2.43-2.38-2.42q-35.43.12-70.86,0c-5.08,0-5,0-5.09,5,0,1.68.36,2.2,2.15,2.19,12.29-.09,24.58,0,36.87,0h34.43C128.13,99.56,128,99.56,128.17,94.81Z"/><path class="cls-1" d="M69.44,188.45c-5.4,0-5.34,0-5.37,5.33,0,1.47.4,1.82,1.84,1.82,11.85-.06,23.7,0,35.54,0h32.44c4.91,0,4.8,0,5-4.9,0-1.9-.51-2.27-2.31-2.26Q103,188.49,69.44,188.45Z"/><path class="cls-1" d="M103.28,165.66c0-1.78-.5-2.15-2.19-2.14-15.33.06-30.65,0-46,0-5.29,0-5.22,0-5.27,5.24,0,1.59.44,1.93,2,1.92,8.22-.08,16.44,0,24.66,0,7.25,0,14.51,0,21.76,0C103.27,170.68,103.18,170.69,103.28,165.66Z"/><path class="cls-1" d="M97.76,106.64c-14.22.06-28.43,0-42.65,0-5.26,0-5.19,0-5.27,5.23,0,1.59.42,1.94,2,1.92,7.62-.09,15.25,0,22.87,0H94.44c5.26,0,5.19,0,5.28-5.24C99.75,107,99.28,106.63,97.76,106.64Z"/><path class="cls-1" d="M51.6,142.25c7.7-.05,15.4,0,23.1,0H94.47c5.24,0,5.17,0,5.24-5.25,0-1.62-.47-1.9-2-1.89-14.14.06-28.28,0-42.42,0-5.54,0-5.48,0-5.48,5.48C49.84,142,50.31,142.26,51.6,142.25Z"/><path class="cls-1" d="M69.45,120.89c-5.49,0-5.45,0-5.38,5.56,0,1.27.38,1.59,1.61,1.58,5.41-.06,10.81,0,16.21,0H94.33c5.41,0,5.35,0,5.38-5.33,0-1.47-.41-1.82-1.84-1.81C88.4,120.92,78.92,120.88,69.45,120.89Z"/><path class="cls-1" d="M55.14,149.34c-5.34,0-5.26,0-5.3,5.4,0,1.59.59,1.76,1.91,1.74,4.66-.07,9.33,0,14,0H76.85c5.1,0,5,0,5.08-5.19,0-1.52-.32-2-1.92-2C71.73,149.38,63.43,149.34,55.14,149.34Z"/></g></g></svg>