<svg xmlns="http://www.w3.org/2000/svg" viewBox="0 0 184.78 213.94"><defs><style>.cls-1{fill:#020a2e;}</style></defs><g id="Layer_2" data-name="Layer 2"><g id="Layer_1-2" data-name="Layer 1"><path class="cls-1" d="M16.77,27.66A47,47,0,0,1,47.71,8,4,4,0,0,0,51.13,3.4,4,4,0,0,0,46.21.1,56.09,56.09,0,0,0,0,55.31c0,.76,0,1.51,0,2.27A38.62,38.62,0,0,0,.9,65.25,3.76,3.76,0,0,0,5.44,68a3.82,3.82,0,0,0,3.25-4.07c0-.93-.22-1.85-.33-2.78A46.6,46.6,0,0,1,16.77,27.66Z"/><path class="cls-1" d="M184.41,49a55.79,55.79,0,0,0-17.94-35.08c-.32-.32-.6-.7-1.12-.74a3.69,3.69,0,0,0-1.57-1.46.79.79,0,0,0-.52-.47,54.59,54.59,0,0,0-25-11.15,3.87,3.87,0,0,0-4.6,3.4A4,4,0,0,0,137,8c1.4.28,2.81.5,4.17.9,17.59,5.17,28.93,16.64,34,34.2a44.64,44.64,0,0,1,.93,20.11,4,4,0,1,0,7.94,1.32A57.57,57.57,0,0,0,184.41,49Z"/><path class="cls-1" d="M49.91,23.5a5,5,0,0,0,2.46-.94,4,4,0,0,0,1-4.95c-.81-1.71-2.51-2.45-4.74-2A40.64,40.64,0,0,0,15.62,55.62a27.77,27.77,0,0,0,.29,4.51c.08.62.15,1.24.25,1.85a4,4,0,1,0,7.89-1.31A32.37,32.37,0,0,1,49.91,23.5Z"/><path class="cls-1" d="M152.84,23c-.29-.24-.58-.48-.86-.73-.44-.3-.88-.6-1.33-.89A40,40,0,0,0,136,15.56c-2.67-.5-4.76.93-5.07,3.4-.3,2.32,1.2,4,4,4.57a32.4,32.4,0,0,1,25.75,37.25,4,4,0,0,0,7.87,1.47,37.77,37.77,0,0,0,.53-4.37,39.9,39.9,0,0,0-6.14-24A36.93,36.93,0,0,0,152.84,23Z"/><path class="cls-1" d="M141.53,115q0-30,0-60a14,14,0,0,0-14.38-14.42H62.71c-2.58,0-5.19-.28-7.73.17a13.94,13.94,0,0,0-11.74,14.1q0,44.18,0,88.35,0,28.2,0,56.4a13.94,13.94,0,0,0,14.13,14.28q32.69,0,65.36,0h.45l1.94,0c1.08,0,2.15.06,3.22,0a13.88,13.88,0,0,0,13-12.7h0v0a12.55,12.55,0,0,0,.15-3.06Q141.54,156.61,141.53,115ZM79.71,45.14H92.52c4.14,0,8.28,0,12.42,0,.86,0,1.65,0,1.63,1.17s-.72,1.28-1.62,1.28H83.19c-1.16,0-2.31,0-3.47,0-.87,0-1.5-.21-1.51-1.23S78.85,45.14,79.71,45.14Zm12.58,164a7.22,7.22,0,0,1,.11-14.44A7.13,7.13,0,0,1,99.59,202,7.25,7.25,0,0,1,92.29,209.11ZM51.2,189.56c-1,0-1.43-.14-1.43-1.34q.06-66.56,0-133.13c0-1.21.34-1.4,1.45-1.4q35.49.06,71,0c3.83,0,7.67,0,11.5,0,1,0,1.29.23,1.29,1.27q-.06,28.82,0,57.61v9.09q0,33.22,0,66.44c0,1.17-.27,1.45-1.44,1.45Q92.37,189.52,51.2,189.56Z"/></g></g></svg>