<svg xmlns="http://www.w3.org/2000/svg" viewBox="0 0 166.21 213.98"><defs><style>.cls-1{fill:#020a2e;}</style></defs><g id="Layer_2" data-name="Layer 2"><g id="Layer_1-2" data-name="Layer 1"><path class="cls-1" d="M166.15,110.1a19.69,19.69,0,0,0-1.82-9.1c-3.81-7.55-9.71-12.31-18.11-13.81-3.28-.59-3.3-.59-3.3-4,0-6.91,0-13.83,0-20.75a67.56,67.56,0,0,0-.74-12.06C136.81,18.87,108.47-5.45,71.25,1.06,43.61,5.9,23,31.24,23,59.38c0,8.16,0,16.31,0,24.46,0,1.84-.45,2.78-2.47,3.16C9.48,89.11,2.22,95.32,0,106.74v88c.59,1.76.63,3.66,1.49,5.38,3.81,7.65,9.6,12.65,18.26,13.89H145.19c2-.44,4.06-.3,6-1.06,7.77-3,15.06-11.21,15-21.53C166.09,164.29,166.18,137.2,166.15,110.1ZM32.05,53.41c2.31-21.5,19.54-40.07,40.72-44,27.94-5.2,53.73,11.54,60.3,39.12,1.78,7.47,1.09,15.06,1.25,21.83,0,5.65,0,10.51,0,15.36,0,1.37-.32,1.78-1.74,1.8-6.19.07-6.19.12-6.19-6,0-7.16,0-14.33,0-21.49A43.56,43.56,0,0,0,80.5,16.35c-22.2,1-40.61,19.94-41,42.19-.14,9-.07,17.95,0,26.93,0,1.57-.34,2-2,2-5.94,0-6,0-5.93-6C31.78,72.17,31.05,62.77,32.05,53.41Zm86.46,24.22c.06,2.63-.11,5.27,0,7.89.1,1.7-.52,2-2.06,2-11.26-.06-22.53,0-33.79,0-11.11,0-22.21,0-33.31,0-1.58,0-2-.36-2-2,.08-8.8,0-17.61.06-26.41A35.6,35.6,0,0,1,80.5,24.27c18.65-1.18,35.14,12.11,37.58,30.42C119.1,62.31,118.32,70,118.51,77.63ZM158,189.14c0,10.33-6.63,16.93-17,16.93q-58.14,0-116.27,0c-10.19,0-16.85-6.64-16.86-16.81q0-38.53,0-77.08c0-10.16,6.67-16.8,16.87-16.8H141c10.36,0,17,6.59,17,16.93Q158,150.72,158,189.14Z"/><path class="cls-1" d="M70.15,123.82c-8.16,7-9.59,19.39-2.36,27.35,2.93,3.23,3.56,6.28,3.33,10.09-.05.74,0,1.48,0,2.22,0,2.3,0,4.61,0,6.91a11.84,11.84,0,1,0,23.68,0c0-4.36.1-8.72,0-13.08a5.06,5.06,0,0,1,1.82-4.23,19.72,19.72,0,0,0-26.45-29.23Zm18.53,25.35a2.8,2.8,0,0,0-1.81,3c.1,5.85.06,11.69,0,17.54,0,2.94-1.46,4.7-3.85,4.77s-4-1.78-4-4.82,0-5.93,0-8.9c0-1.4,0-2.8,0-4.2.13-3.55.3-6.56-3.72-9-4.48-2.68-5.28-8.73-3.17-13.51a11.84,11.84,0,0,1,22.48,2.64A11.69,11.69,0,0,1,88.68,149.17Z"/></g></g></svg>