<svg xmlns="http://www.w3.org/2000/svg" viewBox="0 0 36.6 36.61"><defs><style>.cls-1{fill:#00e38d;}</style></defs><g id="Layer_2" data-name="Layer 2"><g id="Layer_1-2" data-name="Layer 1"><g id="s5EJB4.tif"><path class="cls-1" d="M17.4,0V0h1.75V0a.24.24,0,0,1-.2.05H17.6C17.53.08,17.45.09,17.4,0Z"/><path class="cls-1" d="M13.75,21.45c.05,0,.11,0,.16,0H17.4c.13,0,.16,0,.16.16,0,.67,0,1.34,0,2,0,.11,0,.15-.14.15h-7c-.12,0-.15,0-.15-.16V21.78a.27.27,0,0,1,.09-.21c1.1-1.05,2.2-2.09,3.29-3.15a4.45,4.45,0,0,0,1-1.26,1.34,1.34,0,0,0,.11-.86,1,1,0,0,0-.94-.77,1.8,1.8,0,0,0-1.18.4,6.1,6.1,0,0,0-.79.73c-.06.06-.08.06-.14,0l-1.48-1.59s-.06-.07,0-.12a5,5,0,0,1,2.06-1.54,4.32,4.32,0,0,1,3.73.21A2.85,2.85,0,0,1,17.49,16a3.59,3.59,0,0,1-1,2.86c-.78.83-1.64,1.57-2.46,2.36Z"/><path class="cls-1" d="M34.56,17.66h1.88c.12,0,.16,0,.16.15,0,.38,0,.75,0,1.12a18.87,18.87,0,0,1-.31,2.81c0,.13-.07.13-.17.1L32.48,21c-.1,0-.13-.06-.12-.16a16.53,16.53,0,0,0,.18-2.11,8.81,8.81,0,0,0,0-.89c0-.11,0-.15.14-.15Z"/><path class="cls-1" d="M33.75,28.1,32.31,27c-.52-.41-1-.82-1.57-1.22-.1-.08-.12-.13,0-.25a21.23,21.23,0,0,0,1-2.17c0-.1.07-.13.19-.08l3.46,1.36c.09,0,.14.06.1.16a19,19,0,0,1-1.65,3.28S33.77,28.08,33.75,28.1Z"/><path class="cls-1" d="M31.9,30.55l-.06.07A18.15,18.15,0,0,1,29.2,33c-.09.08-.11,0-.14,0l-1.72-2.64L27,29.75c0-.07-.06-.1,0-.16A12.84,12.84,0,0,0,28.71,28c.07-.07.1-.07.18,0,1,.82,1.94,1.63,2.91,2.44Z"/><path class="cls-1" d="M24.65,31.19c0-.09-.1-.09-.18-.05-.31.16-.63.29-.95.42a14.46,14.46,0,0,1-4.4,1,15.43,15.43,0,0,1-2.45-.07,13.44,13.44,0,0,1-3.13-.73A14.26,14.26,0,0,1,4.18,20.17c-.06-.44-.09-.89-.12-1.34s0-1.17,0-1.76a3.8,3.8,0,0,1,.06-.58A14,14,0,0,1,5.48,12,14.27,14.27,0,0,1,20.59,4.26a13.83,13.83,0,0,1,4.33,1.45,14.27,14.27,0,0,1,3.56,2.66c.06.06.08.1,0,.18-.45.45-.88.92-1.32,1.37l-1.38,1.44L36.6,13.21,34.47,2.32l-.11.09-2.87,3c-.1.11-.14.09-.23,0a15.51,15.51,0,0,0-1.34-1.22A18.18,18.18,0,0,0,23.08.65,18,18,0,0,0,19.16,0H17.4c-.37,0-.73.05-1.1.09a17.25,17.25,0,0,0-2.47.43A18.16,18.16,0,0,0,7,3.88,18,18,0,0,0,1.7,10.52,16.87,16.87,0,0,0,0,17.8a23.19,23.19,0,0,0,.25,3.53,17.88,17.88,0,0,0,1.58,5,18.17,18.17,0,0,0,7.79,8.15,18,18,0,0,0,9,2.18,18.86,18.86,0,0,0,3.51-.39,18.29,18.29,0,0,0,4.6-1.64c.1,0,.11-.09.05-.18Z"/><path class="cls-1" d="M25.57,21.79h.94c.09,0,.12,0,.12-.12V19.83c0-.12,0-.14-.14-.13h-.91c-.11,0-.14,0-.14-.14V16.45h0V13.36c0-.12,0-.15-.15-.15h-2.4a.29.29,0,0,0-.24.12q-1.42,2.05-2.87,4.1l-1.62,2.32a.37.37,0,0,0-.07.32c.1.52.19,1,.27,1.57,0,.11.06.15.18.15H22.7c.14,0,.17,0,.17.17,0,.55,0,1.1,0,1.66,0,.1,0,.15.14.15h2.31c.1,0,.13,0,.13-.14V21.92C25.44,21.82,25.46,21.78,25.57,21.79Zm-2.84-2.07H20.89c-.05,0-.11,0-.13,0s0-.08.06-.11c.49-.72,1-1.43,1.47-2.14.17-.26.36-.51.55-.77h0v1.15c0,.58,0,1.16,0,1.74C22.89,19.69,22.85,19.72,22.73,19.72Z"/></g></g></g></svg>