<svg xmlns="http://www.w3.org/2000/svg" viewBox="0 0 172.82 172.8"><defs><style>.cls-1{fill:#02bc70;}</style></defs><g id="Layer_2" data-name="Layer 2"><g id="Layer_1-2" data-name="Layer 1"><path class="cls-1" d="M172.82,81.83c-.16-1.41-.38-2.81-.47-4.23a6.16,6.16,0,0,0-12.29.92c.13,2.13.29,4.27.37,6.4a70.35,70.35,0,0,1-.32,8.21,69.3,69.3,0,0,1-3.18,15.81A73.6,73.6,0,0,1,134.05,143a70,70,0,0,1-9.33,6.71,72.4,72.4,0,0,1-11,5.46A83,83,0,0,1,102,158.75a71.23,71.23,0,0,1-24.33,1.17,78.85,78.85,0,0,1-13.16-2.81,73.39,73.39,0,0,1-15.31-6.76,75.89,75.89,0,0,1-7.4-4.91,78.67,78.67,0,0,1-7.11-6.16l-2-2.09a76.57,76.57,0,0,1-11.58-16c-.65-1.31-1.33-2.6-1.94-3.92a75.33,75.33,0,0,1-5.25-16.11A71.49,71.49,0,0,1,12.74,79.4a89,89,0,0,1,1.59-9.76,73.55,73.55,0,0,1,8.53-21.15,71.28,71.28,0,0,1,9.87-13A75.24,75.24,0,0,1,47.21,23.69,73.77,73.77,0,0,1,74.68,13.33a72.69,72.69,0,0,1,8.45-.89,52.41,52.41,0,0,1,5.6.09c2.39.14,4.76.27,7.13.54a64.32,64.32,0,0,1,6.91,1.18A73.33,73.33,0,0,1,127.1,24.6a6.23,6.23,0,1,0,6.42-10.66c-2.23-1.31-4.43-2.67-6.72-3.91a79.57,79.57,0,0,0-11.47-5,85.92,85.92,0,0,0-13.82-3.63A92.32,92.32,0,0,0,88.78,0,86.23,86.23,0,0,0,77.31.51,79.27,79.27,0,0,0,64.87,2.73a86.72,86.72,0,0,0-43.69,27,83.89,83.89,0,0,0-7.43,9.93,85.32,85.32,0,0,0-10,21.47,83.07,83.07,0,0,0-2.89,13,75.29,75.29,0,0,0-.8,8.32A86.57,86.57,0,0,0,.36,94.36c.27,2.45.51,4.9,1,7.32a86,86,0,0,0,3.47,13.1,79,79,0,0,0,6.46,14.16c.61,1,1.19,2.08,1.83,3.1a83.74,83.74,0,0,0,12.85,16,58.8,58.8,0,0,0,4.49,4.16A86.3,86.3,0,0,0,42.86,161a84,84,0,0,0,16.56,7.5,86,86,0,0,0,19.25,4,10.91,10.91,0,0,1,3,.29h9.16c.27-.18.57-.07.86-.09,1.67-.06,3.35,0,5-.24,2.91-.39,5.81-.86,8.68-1.5a86.21,86.21,0,0,0,24.05-9.37A87.86,87.86,0,0,0,151.11,144a86.23,86.23,0,0,0,12.41-18,84.75,84.75,0,0,0,7.7-21.6,54.9,54.9,0,0,0,1.45-11,9.52,9.52,0,0,1,.15-2.44Z"/><path class="cls-1" d="M77.11,112.32Q63.84,99,50.52,85.69A8.39,8.39,0,0,0,44.26,83a8.11,8.11,0,0,0-5.27,14l33,33a8.71,8.71,0,0,0,2.33,1.71c3.28,1.6,6.82.9,9.64-1.91l75.53-75.54c.27-.27.54-.54.79-.83A8.09,8.09,0,0,0,153,40.18a8.83,8.83,0,0,0-5.08,2.74Q113.26,77.61,78.58,112.3C78,112.89,77.72,112.93,77.11,112.32Z"/></g></g></svg>