<svg xmlns="http://www.w3.org/2000/svg" viewBox="0 0 63.52 48.55">
    <defs>
        <style>.cls-1{fill:#474765;}</style>
    </defs>
    <g id="Layer_2" data-name="Layer 2">
        <g id="Layer_1-2" data-name="Layer 1">
            <path class="cls-1" d="M56.79.17A9.94,9.94,0,0,0,54.68,0C44,0,33.35.06,22.69,0a5.86,5.86,0,0,0-4.85,2.29c-4.29,5-8.73,10-13,15-1.67,1.94-3.68,3.63-4.8,6v2a11.82,11.82,0,0,0,.8,1.48c1.34,1.5,2.65,3,4,4.55,4.37,5,8.77,9.93,13.06,15a5.86,5.86,0,0,0,4.85,2.29c10.62-.06,21.23,0,31.85,0,4.94,0,7.58-2,9-6.6v-35C63,3,60.48,1,56.79.17Zm1.42,39.77c0,1.89-1,2.82-2.89,2.83h-16c-5.31,0-10.63,0-15.94,0A2.14,2.14,0,0,1,21.62,42Q14.29,33.52,6.85,25.12c-.59-.66-.58-1,0-1.7Q14.28,15,21.63,6.56a2,2,0,0,1,1.66-.8q16,0,32,0c1.91,0,2.88.94,2.89,2.83Q58.22,24.27,58.21,39.94Z"/>
            <path class="cls-1" d="M44.09,25c-.61-.57-.53-.87,0-1.4,1.73-1.66,3.4-3.38,5.1-5.07a2.89,2.89,0,0,0,1.05-2.22A2.58,2.58,0,0,0,48.71,14a2.47,2.47,0,0,0-3,.58c-1.82,1.78-3.62,3.56-5.39,5.39-.51.53-.8.53-1.31,0-1.6-1.67-3.25-3.28-4.88-4.9s-3.09-1.74-4.29-.51-1,2.67.53,4.18,3.15,3.24,4.8,4.78c.71.65.62,1,0,1.63-1.7,1.62-3.35,3.31-5,5-1.31,1.33-1.4,2.87-.27,4s2.66,1,4-.27c1.61-1.58,3.24-3.15,4.77-4.81.76-.82,1.2-1,2,0,1.51,1.68,3.16,3.23,4.77,4.81,1.34,1.33,2.84,1.45,4,.37s1.1-2.71-.26-4.08C47.5,28.33,45.83,26.61,44.09,25Z"/>
        </g>
    </g>
</svg>