<svg xmlns="http://www.w3.org/2000/svg" viewBox="0 0 58.21 102.58">
    <defs>
        <style>.cls-1{fill:#fff;}</style>
    </defs>
    <g id="Layer_2" data-name="Layer 2">
        <g id="Layer_1-2" data-name="Layer 1">
            <g id="_8efsw6" data-name="8efsw6">
                <path class="cls-1" d="M30.27,37.72A4.16,4.16,0,0,1,31.92,33a16.31,16.31,0,0,0,4.89-19.44A16.86,16.86,0,0,0,19.55,3.21,17.06,17.06,0,0,0,4.86,16.44c-1.24,6.44.47,12.2,5.7,16.43,1.7,1.36,2.39,2.66,1.81,4.67C6,36,.84,26.57,1.51,17.76,2.21,8.64,10.17.93,19.78.08a20,20,0,0,1,21,15.33C43.38,25.93,36.76,35,30.27,37.72Z"/>
                <path class="cls-1" d="M12.46,29a12.44,12.44,0,0,1,.31-18.34,12.68,12.68,0,0,1,18.21,1c4.5,5.25,3.9,13.51-.86,17.12.08-2.19-.13-4.2.48-6.25A9.61,9.61,0,0,0,16.27,11.86a9.19,9.19,0,0,0-4.3,10A25.93,25.93,0,0,1,12.46,29Z"/>
                <path class="cls-1" d="M52.55,84.79C49,95.45,40.85,100.64,29.72,99.27a28.35,28.35,0,0,1-10.6-3.08,18.17,18.17,0,0,1-8.83-10.32Q6.81,75.34,3.41,64.79c-.74-2.3-.12-4,1.64-4.63,2.14-.81,3.65-.08,4.67,2.45,1.58,3.93,3.06,7.9,4.59,11.85.42,1.06.72,2.34,2.32,2s1.48-1.47,1.48-2.69c0-8.45,0-16.91,0-25.36h.22c0-8.53,0-17.06,0-25.59,0-1.48.13-2.95,2-3.45,2.4-.65,4.17.86,4.18,3.74,0,10,0,20,0,30,0,1,0,2,0,3-.07,1.34.67,2.19,1.85,2.15a2,2,0,0,0,1.88-2.23c0-2.94,0-5.89,0-8.84.05-2.27,1.05-3.22,3.08-3.16s3,1.12,3,3.26c.08,3.72.11,7.44.22,11.16,0,1.17.17,2.5,1.87,2.32,1.45-.15,1.77-1.19,1.73-2.51-.06-2.25-.07-4.5,0-6.75.09-2.43,1.28-3.58,3.4-3.48s3,1.24,3,3.61c.06,2.87,0,5.74.13,8.61,0,1.26-.24,2.9,1.73,3s1.56-1.78,1.7-2.93c.2-1.61.11-3.25.19-4.88a2.94,2.94,0,0,1,3-2.94c1.88-.2,2.74,1,2.92,2.6C55.32,65.11,55.77,75.05,52.55,84.79Zm4.81-30.08c-.5-4.37-3.8-6.19-8.12-4.94-.92.26-1.35.53-1.86-.69-1.58-3.76-4.6-5-8.49-3.66-.9.31-1.24.23-1.73-.65-1.78-3.24-4-4.4-7.43-3.52-1.95.51-2.16-.16-2.16-1.78,0-5.73-.11-11.47-.14-17.21a5.63,5.63,0,0,0-.74-3.1,6.48,6.48,0,0,0-7.25-2.88,6.21,6.21,0,0,0-4.33,6.09c.15,14.56.06,29.12.06,43.68h-.65c-.64-1.63-1.25-3.28-1.92-4.91C11.05,57.32,7.89,55.89,4,57.2.87,58.23-.7,61.55.3,65.14c2.11,7.56,4.8,15,7.36,22.37a19.43,19.43,0,0,0,4.82,7.55c5.44,5.39,12.26,7.28,19.65,7.51,11.46.36,19.62-5.47,23.31-16.39C58.92,75.86,58.58,65.29,57.36,54.71Z"/>
            </g>
        </g>
    </g>
</svg>