<svg xmlns="http://www.w3.org/2000/svg" viewBox="0 0 230.94 155.56">
    <defs>
        <style>.cls-1{fill:#e90061;}.cls-2{fill:#020a2e;}</style>
    </defs>
    <g id="Layer_2" data-name="Layer 2">
        <g id="Layer_1-2" data-name="Layer 1">
            <path class="cls-1" d="M10,153,49.07,92.5,68.62,62.27l6.45-10,1.56-2.41.39-.61c.13-.17.25-.55.41-.19l.87,1.14,3.5,4.55,22,28.65,7.48,9.72,1.86,2.43.24.3.11.15s0-.06.08-.09l.29-.46.57-.92,2.29-3.68,9.18-14.73,1.15-1.85.57-.92c.13.18.25.4.38.6l1.51,2.44,3,4.88,7.34,11.84L152.82,114l3.23,5.21,1.61,2.61.81,1.3.2.33s.07.14.1.13l.1-.16.4-.66,6.33-10.5L216.79,27.4l9,5.41.1-5.14.2-10.24L226.38,0,211.12,8.42l-9,4.95-4.5,2.48,9,5.41L161.83,95.48l-3,4.91-.19.31-.05.08s0,0,0-.06l-.1-.16-.38-.61-.75-1.22-1.52-2.44-6.05-9.76L138.17,67.76l-6.46-10.42-3.23-5.21c-.27-.42-.54-.89-.81-1.28l-.61,1-1.23,2L116,69.65l-2.47,4-.61,1-.31.49s0,.1-.08.11l0-.07-.11-.15-.88-1.13L108,69.29,86.1,40.86l-7.47-9.72-1.87-2.43-.24-.3s-.08-.18-.11-.08l-.1.16-.42.64-.83,1.29-3.33,5.15L58.64,55.82,39.09,86.06,0,146.53Z"/>
            <rect class="cls-2" x="32.97" y="144.73" width="50.63" height="10.83"/>
            <rect class="cls-2" x="106.97" y="144.73" width="50.63" height="10.83"/>
            <rect class="cls-2" x="106.97" y="130.33" width="50.63" height="10.83"/>
            <rect class="cls-2" x="180.31" y="144.73" width="50.63" height="10.83"/>
            <rect class="cls-2" x="180.31" y="130.33" width="50.63" height="10.83"/>
            <rect class="cls-2" x="180.31" y="115.93" width="50.63" height="10.83"/>
            <rect class="cls-2" x="180.31" y="101.54" width="50.63" height="10.83"/>
        </g>
    </g>
</svg>