<svg xmlns="http://www.w3.org/2000/svg" viewBox="0 0 46.12 37.69">
    <defs>
        <style>.cls-1{fill:#e90061;}</style>
    </defs>
    <g id="Layer_2" data-name="Layer 2">
        <g id="Layer_1-2" data-name="Layer 1">
            <rect class="cls-1" x="26.29" y="-12.69" width="5.08" height="34.58" transform="translate(33.43 -24.22) rotate(90)"/>
            <rect class="cls-1" x="26.29" y="16.49" width="5.08" height="34.58" transform="translate(62.61 4.96) rotate(90)"/>
            <rect class="cls-1" x="26.29" y="1.9" width="5.08" height="34.58" transform="translate(48.02 -9.63) rotate(90)"/>
            <path class="cls-1" d="M4.33,0V7.28H6V8.74H.91V7.28H2.6V2.07l-1.42.65L.59,1.27,3.39,0Z"/>
            <path class="cls-1" d="M.2,16.93a2.8,2.8,0,0,1,3.11-2.52c1.69,0,2.83,1,2.83,2.23,0,1.48-.71,2.17-2.35,3.85l-1,1.05H6.5v1.61H0V22l3-3.11c.69-.71,1.41-1.4,1.41-2.16s-.51-.85-1.15-.85c-.9,0-1.29.56-1.33,1.42Z"/>
            <path class="cls-1" d="M1.75,34.73a1.47,1.47,0,0,0,1.54,1.49c.9,0,1.48-.43,1.48-1.26s-.52-1.18-1.85-1.18H1.74V32.32H3c1.07,0,1.55-.43,1.55-1.12s-.42-.91-1.23-.91-1.24.39-1.3,1L.25,31a2.75,2.75,0,0,1,3-2.16c1.61,0,3,.67,3,2.09A2.38,2.38,0,0,1,5.12,33,2.12,2.12,0,0,1,6.5,35c0,1.82-1.37,2.7-3.21,2.7S.18,36.79,0,35.11Z"/>
        </g>
    </g>
</svg>