<svg xmlns="http://www.w3.org/2000/svg" viewBox="0 0 50.86 50.82"><defs><style>.cls-1{fill:#020a2e;}</style></defs><g id="Layer_2" data-name="Layer 2"><g id="Layer_1-2" data-name="Layer 1"><g id="rpC1sI"><path class="cls-1" d="M50.86,25.41c0,5.78,0,11.57,0,17.36,0,4.88-3.16,8-8,8H33.58c-1.89,0-3-1-3-2.52s1.12-2.48,3.05-2.49c3,0,6,0,9,0,2.36,0,3.28-.93,3.28-3.3q0-17.08,0-34.17C45.84,6,44.93,5,42.57,5c-3,0-6,0-9,0-1.93,0-3-.92-3.06-2.48S31.69,0,33.57,0c3.17,0,6.33,0,9.49,0a7.52,7.52,0,0,1,7.79,7.76C50.88,13.65,50.86,19.53,50.86,25.41Z"/><path class="cls-1" d="M8.6,28l8,8c1.37,1.37,1.52,2.93.41,4s-2.62.93-4-.49L1.13,27.57c-1.51-1.52-1.51-2.8,0-4.32l12-12c1.33-1.33,2.85-1.47,3.94-.4s1,2.64-.32,3.93c-2.61,2.61-5.24,5.2-8.13,8.07H32.18a7.59,7.59,0,0,1,1.35.06,2.52,2.52,0,0,1,0,5A9.19,9.19,0,0,1,32,28Z"/></g></g></g></svg>