<svg xmlns="http://www.w3.org/2000/svg" viewBox="0 0 46.49 58.94">
    <g id="Layer_2" data-name="Layer 2">
        <g id="Layer_1-2" data-name="Layer 1">
            <path d="M45.81,14c-4.67-4.64-9.33-9.31-14-14L3.3,0A4.16,4.16,0,0,0,0,4.46q0,25,0,50A4.17,4.17,0,0,0,3.3,58.94c1.1,0,2.19,0,3.29,0l36.59,0a4.16,4.16,0,0,0,3.29-4.45q0-19.45,0-38.89A2.09,2.09,0,0,0,45.81,14Zm-3.5,36.06c0,3.06-1.77,4.8-4.86,4.8H9.09c-3.22,0-4.92-1.74-4.92-5q0-10.23,0-20.46t0-20.18c0-3.44,1.66-5.12,5.07-5.12,5.67,0,11.34,0,17,0,1,0,1.27.26,1.25,1.24-.07,3,0,5.9,0,8.84,0,3.13,1.6,4.7,4.69,4.71s6,0,9,0c.87,0,1.21.16,1.21,1.14C42.3,30,42.33,40,42.31,50.05Z"/>
            <path d="M10.18,42.07a8.16,8.16,0,0,0,1.31.09c3.91,0,7.81,0,11.72,0,3.47,0,6.93,0,10.4,0A18.16,18.16,0,0,0,36.37,42,1.85,1.85,0,0,0,38,39.87,1.88,1.88,0,0,0,36.17,38c-.43,0-.87,0-1.31,0H12.08c-.57,0-1.15,0-1.71,0a2.07,2.07,0,0,0-.19,4.1Z"/>
            <path d="M36.4,46.47A7.64,7.64,0,0,0,35,46.38H14.16c-1.32,0-2.64,0-3.95.08a1.87,1.87,0,0,0-1.75,2,2,2,0,0,0,1.74,2.11,4.69,4.69,0,0,0,.92.06H35.35a5.25,5.25,0,0,0,1-.08A1.89,1.89,0,0,0,38,48.42,1.86,1.86,0,0,0,36.4,46.47Z"/>
            <path d="M35.48,29.53H23.23c-4.21,0-8.42,0-12.64,0a2,2,0,0,0-2.15,2,2.05,2.05,0,0,0,2,2.13,4.69,4.69,0,0,0,.53,0H35.49c1.66,0,2.59-.82,2.55-2.15S37.1,29.53,35.48,29.53Z"/>
            <path d="M10.59,25.21q5.27.08,10.53,0A1.94,1.94,0,0,0,23.18,23a1.94,1.94,0,0,0-2.16-2c-1.71,0-3.43,0-5.14,0s-3.51,0-5.27,0a2.08,2.08,0,1,0,0,4.15Z"/>
        </g>
    </g>
</svg>