<svg xmlns="http://www.w3.org/2000/svg" viewBox="0 0 38.35 41.08">
    <defs>
        <style>.cls-1{fill:#fff;}</style>
    </defs>
    <g id="Layer_2" data-name="Layer 2">
        <g id="Layer_1-2" data-name="Layer 1">
            <g id="vev33D.tif">
                <path class="cls-1" d="M38.35,20.79a13.73,13.73,0,0,0-.33,1.9,19.16,19.16,0,0,1-8,12.26c-.24.17-.33.13-.48-.1-.87-1.32-1.74-2.64-2.63-4-.17-.25-.17-.36.1-.55a13.6,13.6,0,0,0,5.6-8.72A13.69,13.69,0,0,0,5.78,16.36a13.33,13.33,0,0,0,1.69,9.91c.15.24.23.27.44.05l3-3c.11.11.07.22.07.31V33.87c0,.19,0,.37-.28.37-3.53,0-7,0-10.58,0,0-.16.11-.2.18-.27,1.05-1.06,2.1-2.13,3.17-3.18.21-.2.26-.32.07-.59A18.93,18.93,0,0,1,0,18.25a19.17,19.17,0,0,1,37.12-5.78,18.55,18.55,0,0,1,1.12,4.94c0,.08,0,.18.09.21Z"/>
                <path class="cls-1" d="M18.32,41.08c-.1-.16-.28-.12-.42-.16a5.46,5.46,0,1,1,2.39,0c-.15,0-.32-.06-.43.11Z"/>
            </g>
        </g>
    </g>
</svg>