<svg xmlns="http://www.w3.org/2000/svg" viewBox="0 0 57.8 61.66">
    <g id="Layer_2" data-name="Layer 2">
        <g id="Layer_1-2" data-name="Layer 1">
            <path d="M57.75,15h0a9.19,9.19,0,0,0-.05-1.28.26.26,0,0,0-.27-.27l-1.61-.16c-.68-.07-1.36-.11-2-.19a.31.31,0,0,1-.31-.28A10.43,10.43,0,0,0,52.38,10c-.18-.31-.17-.35,0-.62l2.18-2.65c.18-.22.18-.29,0-.53a10.69,10.69,0,0,0-.69-.82,17,17,0,0,0-2.38-2.19.31.31,0,0,0-.45,0c-.92.72-1.83,1.46-2.72,2.23a.41.41,0,0,1-.52.07,11.15,11.15,0,0,0-2.7-1.17.4.4,0,0,1-.35-.42c-.08-1.17-.22-2.34-.36-3.5A.35.35,0,0,0,44.1.08c-.42,0-.84,0-1.25,0h0a.36.36,0,0,1-.32,0H41.15c-.08.08-.18,0-.27.05a8,8,0,0,0-1.1.11c-.12,0-.17,0-.19.19q-.15,1.1-.24,2.19c0,.54-.08,1.08-.11,1.62,0,.1,0,.14-.14.15a5,5,0,0,0-.85.2A16.65,16.65,0,0,0,35.9,5.59c-.28.15-.28.16-.53,0L32.55,3.23c-.08-.07-.14-.14-.26,0a14.15,14.15,0,0,0-1.49,1.3L30.34,5a16.65,16.65,0,0,0-1.26,1.52l.05,0c.81,1,1.65,2,2.48,3a.17.17,0,0,1,0,.26,8.21,8.21,0,0,0-1,2.2,7.47,7.47,0,0,0-.34,1.14l-.56,0c-1.12.1-2.25.22-3.37.36a.2.2,0,0,0-.19.19A9.17,9.17,0,0,0,26,15.23a13.77,13.77,0,0,0,.21,2.94.18.18,0,0,0,.2.18l2.89.26.87.09s.11,0,.11.06a3.58,3.58,0,0,0,.23.79,8.33,8.33,0,0,0,1.21,2.64.18.18,0,0,1,0,.25c-.3.34-.59.69-.88,1-.51.61-1,1.22-1.51,1.85-.08.11-.09.18,0,.28s.37.49.57.73a14.72,14.72,0,0,0,2.57,2.42.16.16,0,0,0,.26,0c1-.8,1.93-1.58,2.87-2.41l.06-.05c.07-.08.15-.06.23,0l.15.09a9.16,9.16,0,0,0,2.67,1.09c.12,0,.23.08.34.1a.21.21,0,0,1,.18.21c0,.4.07.79.11,1.18.08.86.17,1.72.29,2.58,0,.2,0,.2.23.22a19.25,19.25,0,0,0,3.56.05c.3,0,.6-.07.9-.11a.15.15,0,0,0,.15-.16c0-.59.11-1.18.16-1.77s.13-1.38.19-2.07a.17.17,0,0,1,.14-.18c.17-.05.34-.12.51-.16A8.44,8.44,0,0,0,48,26.23c.29-.18.29-.18.55.05.92.79,1.85,1.55,2.8,2.29a.23.23,0,0,0,.33,0,5.68,5.68,0,0,0,1-.79c.44-.46.87-.93,1.3-1.39.27-.3.53-.61.77-.93s.15-.17,0-.36c-.77-.93-1.54-1.86-2.33-2.78a1.42,1.42,0,0,0-.12-.13.16.16,0,0,1,0-.23.83.83,0,0,0,.07-.13,11,11,0,0,0,1-2.43c.05-.17.07-.34.12-.5a.19.19,0,0,1,.2-.15l1.72-.16,2.12-.19c.11,0,.14-.05.16-.16a8,8,0,0,0,.1-1.2.61.61,0,0,1,0-.35V15.32A.4.4,0,0,1,57.75,15ZM43.23,21.61a5.85,5.85,0,0,1-5.45-9.79,5.5,5.5,0,0,1,2.29-1.51A5.27,5.27,0,0,1,42,10.05a5,5,0,0,1,2.59.54,5.9,5.9,0,0,1,3.14,4A5.83,5.83,0,0,1,43.23,21.61Z"/>
            <path d="M42.84,0h0V0h-.31C42.63.06,42.74,0,42.84,0Z"/>
            <path d="M57.77,15c0,.11,0,.22,0,.32V15Z"/>
            <path d="M40.8,43.36l-.33-.14c-1.42-.57-2.87-1.07-4.3-1.61-.22-.09-.22-.09-.22-.33a14.16,14.16,0,0,0-.08-1.84,21.59,21.59,0,0,0-.5-2.52c-.06-.2,0-.2.12-.33,1.37-1,2.71-2,4-3a.19.19,0,0,0,.07-.27,19.17,19.17,0,0,0-2.94-4.94c-.14-.17-.15-.17-.36-.08-1.47.63-2.91,1.32-4.35,2-.27.13-.21.14-.43-.08A18,18,0,0,0,30,28.89c-.59-.45-1.25-.8-1.86-1.23-.1-.07-.16-.13-.14-.26.25-1.56.49-3.11.73-4.67,0-.16.12-.34,0-.47s-.27-.14-.41-.19c-.48-.2-1-.37-1.46-.55s-1-.3-1.53-.43c-.78-.19-1.57-.34-2.36-.47-.13,0-.17,0-.21.13-.15.41-.31.81-.47,1.22-.43,1.14-.83,2.28-1.23,3.43,0,.13-.09.21-.26.2a13,13,0,0,0-2,.09,12,12,0,0,0-2.59.52c-.25.09-.21.12-.38-.13C15,24.75,14,23.44,13,22.13c-.15-.21-.15-.21-.39-.12a13.08,13.08,0,0,0-2.26,1.09c-.21.13-.42.26-.64.38a10,10,0,0,0-2,1.41c-.18.15-.18.16-.08.36q1,2.12,2,4.23l.12.25a.13.13,0,0,1,0,.18c-.45.42-.82.9-1.23,1.35a11.78,11.78,0,0,0-1.57,2.27c-.11.21-.1.22-.35.18C5,33.42,3.4,33.15,1.81,32.9c-.3,0-.3,0-.41.23l-.07.16a13,13,0,0,0-.71,2C.37,36.4.14,37.56,0,38.73c0,.11,0,.16.12.18L.24,39l4.45,1.71c.26.11.22,0,.23.35s0,.79,0,1.18a16.89,16.89,0,0,0,.61,3.32c.07.24.07.24-.12.37-1.3.91-2.58,1.84-3.86,2.78-.25.18-.25.18-.13.46A22.81,22.81,0,0,0,4.29,54c.15.2.11.2.36.08l4.41-2c.27-.13.19-.13.4.08a13.16,13.16,0,0,0,2.94,2.26c.21.11.41.25.61.38a.17.17,0,0,1,.1.23c-.07.34-.12.69-.18,1-.21,1.28-.41,2.56-.58,3.84,0,.23,0,.22.19.32A14.78,14.78,0,0,0,15,61a24.76,24.76,0,0,0,3.08.64c.2,0,.2,0,.28-.15.61-1.52,1.19-3,1.72-4.59.12-.35,0-.28.41-.28a15.44,15.44,0,0,0,2.35-.14A18.31,18.31,0,0,0,24.75,56c.28-.08.28-.08.44.14l2.84,4,.14.19c.3-.15.59-.3.88-.42a17.52,17.52,0,0,0,4.22-2.62c.26-.21.24-.11.1-.43-.64-1.48-1.33-2.94-2-4.41-.09-.2-.08-.19.06-.35.36-.4.76-.78,1.1-1.21a13.91,13.91,0,0,0,1.4-2.15c.11-.22.12-.22.35-.18l3.24.54,1.65.27c.25,0,.2,0,.28-.15.16-.4.3-.8.44-1.21.25-.73.49-1.47.67-2.23a18.72,18.72,0,0,0,.38-2.22A.16.16,0,0,0,40.8,43.36Zm-13-.13a7.12,7.12,0,0,1-4,4.66,7.59,7.59,0,0,1-10.72-5.57,6.91,6.91,0,0,1,.06-2.68,7.43,7.43,0,0,1,1.28-3,7.52,7.52,0,0,1,5.26-3.06,7.33,7.33,0,0,1,6.27,2.18,7.52,7.52,0,0,1,2.19,4.64A7.66,7.66,0,0,1,27.81,43.23Z"/>
            <path d="M42,10.88a5,5,0,0,0-5,4.94,5,5,0,1,0,10,.08A5,5,0,0,0,42,10.88Zm0,8.79a3.82,3.82,0,0,1-3.71-3.82,3.73,3.73,0,1,1,7.46,0A3.8,3.8,0,0,1,42,19.67Z"/>
            <path d="M22.48,34.87a6.16,6.16,0,0,0-4.43.24A6.12,6.12,0,0,0,15,37.87a8.8,8.8,0,0,0-.64,1.78,5.9,5.9,0,0,0,0,3.12,4.15,4.15,0,0,0,.79,1.67,6.27,6.27,0,0,0,5.14,3.12,6.72,6.72,0,0,0,4.44-1.42,6.3,6.3,0,0,0,2.41-4.56,6.13,6.13,0,0,0-.75-3.48A6.23,6.23,0,0,0,22.48,34.87Zm.73,10.3a4.86,4.86,0,0,1-2,.75,3.91,3.91,0,0,1-1.23,0,6.28,6.28,0,0,1-1.3-.38,4.63,4.63,0,0,1-2.53-2.66,4.74,4.74,0,0,1,2.17-6A4.42,4.42,0,0,1,21,36.23a4.85,4.85,0,0,1,3.17,1.51,5,5,0,0,1,1.3,2.63c0,.24,0,.48.06.72A4.87,4.87,0,0,1,23.21,45.17Z"/>
        </g>
    </g>
</svg>