<svg xmlns="http://www.w3.org/2000/svg" viewBox="0 0 58.47 38.94">
    <defs>
        <style>.cls-1{fill:#474765;}</style>
    </defs>
    <g id="Layer_2" data-name="Layer 2">
        <g id="Layer_1-2" data-name="Layer 1">
            <path class="cls-1" d="M47.31,6.62a16.36,16.36,0,0,1,2.42,2.63,13.51,13.51,0,0,0-3-5.86c-4-5.14-10-3.62-13-.81A17,17,0,0,0,30,8.16,90.46,90.46,0,0,0,25.61,21a39.83,39.83,0,0,1-3.28,8.84c-1,1.71-2.11,3.28-4.27,3.63-3.18.92-5.67-.28-7.81-2.54-.5-.52-.75-1.26-1.47-1.58.22,2.12,1.4,3.81,2.52,5.49,3.43,5.12,10,5.45,14.07.75a19.78,19.78,0,0,0,3.18-5.48A121.16,121.16,0,0,0,33,16.5,26.82,26.82,0,0,1,36.63,8,7.12,7.12,0,0,1,47.31,6.62Z"/>
            <path class="cls-1" d="M53.67,18.53c-1.46.17-1.84-.5-2-1.73a16.7,16.7,0,0,0-3.45-8.28,7.91,7.91,0,0,0-6.31-3.16c3,3.75,3.94,8.05,4.88,12.37.21.94-.46.76-1,.76H40.25c3,3.21,5.72,6.11,8.4,9.07.7.77,1,.41,1.55-.14,2-2.24,4.13-4.45,6.2-6.68l2.07-2.25A46.92,46.92,0,0,0,53.67,18.53Z"/>
            <path class="cls-1" d="M14.81,32.88c.57.14,1.22.54,1.72-.18a2.48,2.48,0,0,1-.57-.42c-2.51-3.43-3.44-7.44-4.22-11.5-.17-.86.36-.83.95-.83,1.73,0,3.46,0,5.55,0-3-3.23-5.71-6.15-8.42-9.09-.42-.45-.73-.71-1.3-.1C5.79,13.76,3,16.71,0,20c2,0,3.72,0,5.39,0,.75,0,1.19.05,1.3,1a28.74,28.74,0,0,0,1.75,6.28C10,29.76,11.66,32.15,14.81,32.88Z"/>
        </g>
    </g>
</svg>