<svg xmlns="http://www.w3.org/2000/svg" viewBox="0 0 102.21 102.22"><defs><style>.cls-1{fill:#474765;}</style></defs><g id="Layer_2" data-name="Layer 2"><g id="Layer_1-2" data-name="Layer 1"><path class="cls-1" d="M98.49,47.71c-2.49,0-5,0-7.48,0-.75,0-.93-.22-1-.93a34.93,34.93,0,0,0-3.49-12.39c-6.47-12.82-16.81-20.31-31.1-22.2-.71-.1-1-.26-.93-1,0-2.5,0-5,0-7.49A3.43,3.43,0,0,0,51.09,0c-2,0-3.37,1.55-3.37,3.77,0,2.53,0,5.05,0,7.58,0,.6-.18.79-.77.84a35.21,35.21,0,0,0-7.12,1.41A38.88,38.88,0,0,0,20.22,27.1a38.11,38.11,0,0,0-8,19.84c-.07.68-.33.79-.93.79-2.3,0-4.59.07-6.88,0A4,4,0,0,0,0,50.31v1.6a3.43,3.43,0,0,0,3.63,2.86c2.06,0,4.12,0,6.18,0,2.42,0,1.95-.25,2.29,2.06a38.39,38.39,0,0,0,3.49,11.39,39.87,39.87,0,0,0,9.33,12.32,40.56,40.56,0,0,0,9.71,6.38,37.28,37.28,0,0,0,11.75,3.32c.87.1,1.09.46,1.08,1.27,0,2.36,0,4.72,0,7.08a3.42,3.42,0,0,0,2.86,3.63h1.6a4,4,0,0,0,2.62-4.39c-.11-2.25,0-4.52,0-6.78,0-.68.1-1,.88-1a34.71,34.71,0,0,0,12.48-3.52C80.7,80,88.18,69.6,90,55.26c.08-.59.24-.78.84-.77,2.53,0,5.06,0,7.59,0,2.21,0,3.75-1.39,3.76-3.37A3.43,3.43,0,0,0,98.49,47.71ZM19,47q2.78-17.78,19-25.49A32.22,32.22,0,0,1,47,19c.63-.09.78.06.77.69,0,3.19,0,6.38,0,9.57,0,.69-.23.88-.83,1C39.14,32,33.88,36.65,31,44.06a16.5,16.5,0,0,0-.74,2.78c-.13.65-.33.93-1.07.9-1.6-.08-3.19,0-4.79,0s-3.19,0-4.79,0C19.12,47.73,18.89,47.66,19,47ZM47.72,82.55c0,.51,0,.76-.67.69A32.62,32.62,0,0,1,19.84,59.46c-.36-1.41-.62-2.85-.85-4.29-.08-.5,0-.69.58-.68,1.66,0,3.32,0,5,0s3.06,0,4.58,0c.73,0,1,.19,1.16.91A20.82,20.82,0,0,0,39.68,69a18.65,18.65,0,0,0,7,2.84c.77.15,1.14.38,1.11,1.3C47.67,76.3,47.71,79.43,47.72,82.55Zm6.65-20.41a3.34,3.34,0,0,0-3.72-2.45,3.38,3.38,0,0,0-2.93,3.16c0,.2,0,.4,0,.6,0,1.82,0,1.89-1.74,1.19a14.44,14.44,0,0,1-8.74-9.46c-.22-.68,0-.69.57-.69a8,8,0,0,0,2.28-.12,3.34,3.34,0,0,0,2.45-3.72,3.38,3.38,0,0,0-3.16-2.93h-.6c-1.79,0-1.85,0-1.22-1.64a14.39,14.39,0,0,1,9.58-8.87l.27-.07c.42,0,.3.27.31.47,0,.56,0,1.13,0,1.69a3.39,3.39,0,0,0,6.78,0c0-.2,0-.4,0-.6,0-1.66,0-1.72,1.55-1.14a14.34,14.34,0,0,1,9,9.59c.18.55,0,.62-.5.6a13.61,13.61,0,0,0-1.69,0,3.39,3.39,0,0,0,0,6.76c.2,0,.4,0,.6,0,1.82,0,1.89,0,1.19,1.75A14.45,14.45,0,0,1,55.19,65c-.68.21-.7,0-.7-.57A8,8,0,0,0,54.37,62.14Zm28.85-6.91A32.49,32.49,0,0,1,56.88,83c-2.38.43-2.38.43-2.38-2V77.7c0-1.56,0-3.13,0-4.69,0-.71.2-.94.88-1.08A21,21,0,0,0,70.58,59.68,17.23,17.23,0,0,0,72,55.24c.09-.54.26-.76.87-.75q4.89,0,9.77,0C83.25,54.48,83.29,54.71,83.22,55.23Zm-.59-7.5c-1.62,0-3.25,0-4.88,0s-3.2,0-4.79,0c-.68,0-.89-.22-1-.83a20.94,20.94,0,0,0-9.26-13.62,19.12,19.12,0,0,0-7.21-3c-.73-.13-1-.36-1-1.19.06-3.12.05-6.25,0-9.37,0-.77.23-.84.9-.74A32.56,32.56,0,0,1,83.23,47.06C83.31,47.59,83.17,47.74,82.63,47.73Z"/><path class="cls-1" d="M57.49,51.21a6.38,6.38,0,1,0-6.43,6.28A6.45,6.45,0,0,0,57.49,51.21Zm-6.38.28a.35.35,0,0,1-.38-.36.35.35,0,0,1,.43-.4.36.36,0,0,1,.34.4C51.46,51.36,51.34,51.5,51.11,51.49Z"/></g></g></svg>