<svg xmlns="http://www.w3.org/2000/svg" viewBox="0 0 39.57 36.61">
    <defs>
        <style>.cls-1{fill:#00e38d;}</style>
    </defs>
    <g id="Layer_2" data-name="Layer 2">
        <g id="Layer_1-2" data-name="Layer 1">
            <path class="cls-1" d="M38.67,14.9c-.59,0-1.19,0-1.78,0s-.54,0-.66-.53a18,18,0,0,0-1-3.12A18.26,18.26,0,0,0,26.63,2,17.88,17.88,0,0,0,20.84.12C20.26,0,19.67.08,19.09,0h-.16c-.09.17-.25.07-.37.07H17.22a12.06,12.06,0,0,0-1.8.18,17.73,17.73,0,0,0-9.92,5A17.77,17.77,0,0,0,.36,21.83,17.42,17.42,0,0,0,7.93,33.36a17.75,17.75,0,0,0,15.46,2.49A17.92,17.92,0,0,0,32,30.43,16.94,16.94,0,0,0,34.1,27.5a1.69,1.69,0,0,0-.1-1.89A1.67,1.67,0,0,0,32.2,25a1.92,1.92,0,0,0-1.07.95,15,15,0,0,1-17.35,6.58A14.45,14.45,0,0,1,7,28.14a14.68,14.68,0,0,1-3.69-9.27A14.53,14.53,0,0,1,5.84,10,14.93,14.93,0,0,1,19.11,3.39,14.73,14.73,0,0,1,24.68,4.8a14.88,14.88,0,0,1,6.78,6.46A14.17,14.17,0,0,1,32.85,15H30.48a.82.82,0,0,0-.79.46.76.76,0,0,0,.1.9q2.07,2.5,4.15,5a.8.8,0,0,0,1.28,0c.19-.21.37-.43.55-.65,1.26-1.54,2.58-3,3.8-4.61v-.46A.81.81,0,0,0,38.67,14.9Z"/>
            <path class="cls-1" d="M18.52,0c.14,0,.28,0,.41,0h-1.7a.2.2,0,0,1,0,.07C17.65,0,18.09.06,18.52,0Z"/>
            <path class="cls-1" d="M15.83,19.84A2.84,2.84,0,0,0,19.21,21a.64.64,0,0,1,.6.07l5.24,3a3.6,3.6,0,0,0,.52.26,1.66,1.66,0,0,0,1.24-3.07c-1.79-1-3.58-2.08-5.38-3.1a.58.58,0,0,1-.32-.44,2.56,2.56,0,0,0-1-1.66.58.58,0,0,1-.21-.5c0-1.64,0-3.27,0-4.91h0c0-1.62,0-3.24,0-4.87a1.64,1.64,0,0,0-2.17-1.57A1.7,1.7,0,0,0,16.62,6v9.58a.63.63,0,0,1-.24.56A2.84,2.84,0,0,0,15.83,19.84Zm2.43-2.77a1.27,1.27,0,0,1,1.28,1.22,1.25,1.25,0,0,1-1.24,1.26,1.23,1.23,0,0,1-1.25-1.23A1.25,1.25,0,0,1,18.26,17.07Z"/>
        </g>
    </g>
</svg>