<svg xmlns="http://www.w3.org/2000/svg" viewBox="0 0 76.59 76.59"><defs><style>.cls-1{fill:#fff;}</style></defs><g id="Layer_2" data-name="Layer 2"><g id="Layer_1-2" data-name="Layer 1"><g id="enQvgN.tif"><path class="cls-1" d="M38.33,76.59h-.07A38.3,38.3,0,0,1,38.29,0h0a38.27,38.27,0,0,1,27,65.39A38,38,0,0,1,38.33,76.59ZM.84,38.27h.84A36.69,36.69,0,0,0,38.26,74.91h.07A36.69,36.69,0,0,0,74.91,38.34,36.67,36.67,0,0,0,38.3,1.68h0A36.67,36.67,0,0,0,1.68,38.27Z"/><path class="cls-1" d="M13.4,58.76A4.11,4.11,0,0,1,13.33,60,4.11,4.11,0,0,1,13.4,58.76Z"/><path class="cls-1" d="M63.26,59.71a2.76,2.76,0,0,1-.06-1A3.23,3.23,0,0,1,63.26,59.71Z"/><path class="cls-1" d="M63.26,59.71c-.08-.34,0-.69-.06-1a8.27,8.27,0,0,0-.09-.87,16,16,0,0,0-.48-3.23,24,24,0,0,0-3.38-8,23.45,23.45,0,0,0-4-4.76c-.78-.69-1.56-1.35-2.4-2a26.29,26.29,0,0,0-3.92-2.33c-.17-.08-.37-.17-.11-.35a9.42,9.42,0,0,0,1.62-1.72,14.68,14.68,0,0,0,2.79-5.17,15.32,15.32,0,0,0,.63-5.13A16.34,16.34,0,0,0,53.13,21,15.59,15.59,0,0,0,39.29,10.26a6.05,6.05,0,0,0-2.08,0,13.08,13.08,0,0,0-2.32.32,15.68,15.68,0,0,0-12.2,14.26,14.8,14.8,0,0,0,.24,3.75,15.2,15.2,0,0,0,4,7.81c.33.35.72.64,1.11,1l-.38.18A25.13,25.13,0,0,0,16.11,48.65a24.1,24.1,0,0,0-2.42,7.09,11.82,11.82,0,0,0-.29,3c-.1.4,0,.81-.07,1.21s.23.17.34.17c1.83,0,3.66,0,5.49,0,.37,0,.44-.13.42-.45A12.16,12.16,0,0,1,20,56.2a18.65,18.65,0,0,1,3.62-7.62,19,19,0,0,1,7.57-5.76A18.8,18.8,0,0,1,41,41.62a18.46,18.46,0,0,1,6.36,2.13,19,19,0,0,1,5.49,4.6,18.06,18.06,0,0,1,3,5.19,16.58,16.58,0,0,1,1.15,5.73,3.64,3.64,0,0,0,0,.57c.05.27.15.32.4.31,1.82,0,3.65,0,5.48,0C63.24,60.16,63.33,60,63.26,59.71ZM37.52,35.17a9.38,9.38,0,0,1-8.58-9.39,9.34,9.34,0,0,1,18.63-.92A9.43,9.43,0,0,1,37.52,35.17Z"/></g></g></g></svg>