<svg xmlns="http://www.w3.org/2000/svg" viewBox="0 0 181.51 181.51"><defs><style>.cls-1{fill:#e90061;}.cls-2{fill:none;stroke:#e90061;stroke-miterlimit:10;stroke-width:8px;}</style></defs><g id="Layer_2" data-name="Layer 2"><g id="Layer_1-2" data-name="Layer 1"><g id="EZpphx"><path class="cls-1" d="M91.12,30.62a84.68,84.68,0,0,1,9.5.31c3.79.53,5.28,2.1,5.38,6,.13,5.63-.71,11.2-1.22,16.78-1,10.52-2.07,21-3.14,31.52-.34,3.36-.6,6.74-1.12,10.07-.63,4-2.16,7.66-6.59,8.6-5.9,1.26-11.78-1.36-12.64-8.6C79.11,76.87,77.51,58.42,75.64,40c-.72-7,1.27-9.29,8.33-9.37C86.21,30.6,88.44,30.62,91.12,30.62Z"/><path class="cls-1" d="M104.25,132.76a13.48,13.48,0,1,1-27-.49c.08-7.17,6.55-13.37,13.81-13.24C98.14,119.16,104.36,125.64,104.25,132.76Z"/></g><circle class="cls-2" cx="90.75" cy="90.75" r="86.75"/></g></g></svg>