<svg xmlns="http://www.w3.org/2000/svg" viewBox="0 0 90.99 89.18">
    <defs>
        <style>.cls-1{fill:#fff;}.cls-2{fill:#020a2e;}</style>
    </defs>
    <g id="Layer_2" data-name="Layer 2">
        <g id="Layer_1-2" data-name="Layer 1">
            <g id="n6c0Oj">
                <path class="cls-1" d="M45.24,89.18H6.08c-5.53-.08-7.54-3.34-5-8.27Q20,44.39,39,7.88c.92-1.77,1.78-3.57,2.81-5.27,2.11-3.49,5.28-3.48,7.36.05,1.3,2.21,2.41,4.53,3.59,6.81Q71.19,45,89.61,80.45c.27.51.54,1,.77,1.55,1.53,3.59.14,6.24-3.69,7a14,14,0,0,1-2.68.2Q64.63,89.2,45.24,89.18Z"/>
                <path class="cls-2" d="M51.25,41.23c0,5.08,0,10.16,0,15.23,0,3.61-2.18,5.8-5.71,5.83s-5.87-2.12-5.87-5.85q0-15.13,0-30.27c0-3.6,2.2-5.84,5.7-5.89s5.87,2.28,5.88,5.91C51.26,31.2,51.25,36.22,51.25,41.23Z"/>
                <path class="cls-2" d="M45.36,79.64a6.25,6.25,0,1,1,6.34-6.1A6.18,6.18,0,0,1,45.36,79.64Z"/>
            </g>
        </g>
    </g>
</svg>