<svg xmlns="http://www.w3.org/2000/svg" viewBox="0 0 71.78 53.79">
    <defs>
        <style>.cls-1{fill:#E57D07;}</style>
    </defs>
    <g id="Layer_2" data-name="Layer 2">
        <g id="Layer_1-2" data-name="Layer 1">
            <path class="cls-1" d="M14.06,41.55c.18-6.44,0-12.89,0-19.34V4.71c-3.17,1-6.06,2-9,2.86A7.75,7.75,0,0,0,0,11.49V14.3a8.19,8.19,0,0,1,.6,1.18q5.52,16.86,11,33.71C13.18,53.93,16,55,20.55,52.46,15.52,50.48,13.93,46.62,14.06,41.55Z"/>
            <path class="cls-1" d="M66.86,7.63Q56.09,4.14,45.3.68C40.51-.86,38.56.1,37,4.76Q31.72,21.11,26.41,37.47c-.34,1.06-.58,2.15-.78,2.92,0,3.25,1.69,4.66,4.25,5.48,7.46,2.39,14.89,4.85,22.35,7.25,4.59,1.48,6.58.49,8.07-4q5.45-16.61,10.86-33.22C72.65,11.27,71.54,9.15,66.86,7.63ZM59,28.41c-3.09,4.71-8.1,6.29-13.09,7.85-.68.22-1-.27-1.36-.72-2.67-3.5-5-7.19-5.72-11.64-.8-5,2.67-9.17,7-8.47,2.1.33,3.07,1.3,4.78,4.86,3.36-2.29,6-2.3,8.17-.12C60.75,22.17,60.91,25.52,59,28.41Z"/>
            <path class="cls-1" d="M23,35.22c3.62-10.47,6.9-21.07,10.32-31.61A5,5,0,0,0,33.88.93c-3.13,0-6.21,0-9.29,0C19.79,1,18,2.76,18,7.55q0,17.25,0,34.5c0,5.5,2.17,7.35,8.19,6.7C21,45.07,21.18,40.48,23,35.22Z"/>
        </g>
    </g>
</svg>