<svg xmlns="http://www.w3.org/2000/svg" viewBox="0 0 79.13 53.92">
    <defs>
        <style>.cls-1{fill:#E57D07;}</style>
    </defs>
    <g id="Layer_2" data-name="Layer 2">
        <g id="Layer_1-2" data-name="Layer 1">
            <path class="cls-1" d="M66.3,19.91a31.37,31.37,0,0,1-6,1.72c-6.52,1.24-13,.54-19.4-.63-7.17-1.3-14.21-3.21-21.48-3.93A39.58,39.58,0,0,0,1,19.14a1.27,1.27,0,0,0-1,1.42c0,4.89,0,9.77,0,14.66s0,9.92,0,14.89c0,.93.24,1,1,.68a35.6,35.6,0,0,1,13.66-2.36,74.78,74.78,0,0,1,13.82,1.68c7.25,1.44,14.43,3.31,21.85,3.73A37.69,37.69,0,0,0,66.45,51.5a1,1,0,0,0,.8-1.08q0-15,0-29.9C67.25,19.7,67,19.62,66.3,19.91ZM36.65,48.07a3.56,3.56,0,0,1-.57.08.67.67,0,0,1-.3.08,7,7,0,0,1-3.47-.06h0a10.88,10.88,0,0,1-8.73-7.78,11.79,11.79,0,0,1,7.71-15.13c1.45-.41,1.6-.26,1.51,1.24,0,.59-.37.7-.78.8a5.88,5.88,0,0,0-2.81,1.58,4.76,4.76,0,0,0,.67,7.21,13.45,13.45,0,0,0,3.24,1.56,15.12,15.12,0,0,1,1.81.77c.8.42,1.44,1,1.23,2a1.92,1.92,0,0,1-1.9,1.43,8.29,8.29,0,0,1-4.76-.76c-.78-.38-1-.25-1.23.57-.68,2.68-.68,2.72,2,3.33l.11,0c.71.14,1.7,0,2.07.47s.13,1.56.15,2.37h0c.76.47,1.59.17,2.38.19.58,0,.37-.54.46-.88a.69.69,0,0,0,0-.2c0-.17,0-.34,0-.51-.08-.5-.19-1,.39-1.38a9.63,9.63,0,0,0,2.65-1.16,5.06,5.06,0,0,0-.28-8.55,23,23,0,0,0-2.52-1.17c-.78-.35-1.57-.66-2.32-1.06s-1.17-.82-1-1.66A1.67,1.67,0,0,1,34,30.22a7.6,7.6,0,0,1,4.21.59c.7.32.9.11,1.09-.55.74-2.65.55-2.94-2.61-3.26-.75-.08-1.07-.24-1.07-1.08s.38-.94,1.07-.75a11.27,11.27,0,0,1,7.43,6A11.87,11.87,0,0,1,36.65,48.07Z"/>
            <path class="cls-1" d="M74.24,26.23c0-5,0-9.93,0-14.89,0-.82-.15-1-1-.68a29.41,29.41,0,0,1-6.7,1.88c-6.3,1-12.52.32-18.71-.86C41.45,10.47,35.11,8.76,28.6,8c-6.22-.74-12.4-.67-18.37,1.52-2.64,1-2,.28-2.1,3.06,0,.64.08.88.83.7,6.55-1.52,13.09-1,19.62.13,6.87,1.19,13.62,3,20.55,3.91s13.85.74,20.49-1.86c.86-.34.94-.08.94.69q0,12.28,0,24.55c0,2.7,0,2.66,2.54,1.73a1.54,1.54,0,0,0,1.17-1.77C74.21,35.85,74.24,31,74.24,26.23Z"/>
            <path class="cls-1" d="M79.1,17.34c0-4.57,0-9.15,0-13.73,0-.81-.15-1-1-.69a25.9,25.9,0,0,1-3,1c-6.44,1.81-12.9,1.29-19.36.14S42.73,1.08,36.06.33A35.62,35.62,0,0,0,19.54,1.84c-2.34.85-1.76.28-1.87,2.75,0,.74.27.84.9.7,6.1-1.43,12.17-.88,18.24.17,6.68,1.16,13.23,3,20,3.72,6.05.69,12,.46,17.76-1.76,1-.39,1.14-.16,1.13.8,0,7.6,0,15.21,0,22.81,0,2.25,0,2.2,2.12,1.47a1.66,1.66,0,0,0,1.34-1.9C79.05,26.19,79.09,21.76,79.1,17.34Z"/>
            <path class="cls-1" d="M32.6,47.88h0l-.29.29h0C32.57,48.23,32.64,48.11,32.6,47.88Z"/>
            <path class="cls-1" d="M35.83,45.1a2.16,2.16,0,0,0-.39,1.38,1.75,1.75,0,0,1,0,.51c0,.36.11.73.13,1.09,0,.1.08.14.18.15l.3-.08C35.2,47.2,35.66,46.14,35.83,45.1Z"/>
        </g>
    </g>
</svg>