<svg xmlns="http://www.w3.org/2000/svg" viewBox="0 0 53.79 53.79">
    <defs>
        <style>.cls-1{fill:#E57D07;}</style>
    </defs>
    <g id="Layer_2" data-name="Layer 2">
        <g id="Layer_1-2" data-name="Layer 1">
            <path class="cls-1" d="M26.89,0c-.59,0-1.17,0-1.75.06V7A20,20,0,0,0,7,26.89,19.74,19.74,0,0,0,9.68,37l2.64-2.47a16.43,16.43,0,0,1,14.57-24,14.6,14.6,0,0,1,1.76.1v-7a23.4,23.4,0,0,1,21.62,23.3,23.15,23.15,0,0,1-3.92,12.94L49,42.26A26.87,26.87,0,0,0,26.89,0Z"/>
            <path class="cls-1" d="M14.25,42.3A19.89,19.89,0,0,0,36,44.62L33.27,42a16.41,16.41,0,0,1-19-4.6l-1.72,1.61h0L9.23,42.18A23.36,23.36,0,0,1,21.62,4.12V.52A26.88,26.88,0,0,0,9.15,47.08l.75-.71h0Z"/>
            <path class="cls-1" d="M44.18,42.62l-2.51-2.35a19.93,19.93,0,0,0-9.5-32.61v3.67a16.42,16.42,0,0,1,4.31,28.9l2.61,2.44h0L41.62,45a23.35,23.35,0,0,1-27,1.74L12,49.25A26.84,26.84,0,0,0,46.75,45l-2.57-2.4Z"/>
            <circle class="cls-1" cx="26.89" cy="26.89" r="5.55"/>
            <rect class="cls-1" x="16.84" y="25.14" width="20.12" height="3.52" transform="translate(-11.12 28.15) rotate(-46.89)"/>
        </g>
    </g>
</svg>