<svg xmlns="http://www.w3.org/2000/svg" viewBox="0 0 61.18 52.87">
    <defs>
        <style>.cls-1{fill:#E57D07;}</style>
    </defs>
    <g id="Layer_2" data-name="Layer 2">
        <g id="Layer_1-2" data-name="Layer 1">
            <path class="cls-1" d="M60.94,29.32c-.83-1.81-1.65-3.63-2.48-5.44Q53.92,13.94,49.37,4C48.8,2.75,48,2.41,46.81,3L40.12,6c-1.42.65-1.65,1.15-1.18,2.62.28.89,0,1.49-1,1.91a1.36,1.36,0,0,1-2-.57c-.71-1.22-1.35-1.44-2.59-.87L1.21,23.84a1.62,1.62,0,0,0-.95,2.49L11.83,51.59c.6,1.31,1.31,1.57,2.63,1L46.52,37.87a1.64,1.64,0,0,0,1-2.42,1.4,1.4,0,0,1,.73-1.93,1.5,1.5,0,0,1,2.38.71,1.55,1.55,0,0,0,2.11.78q3.75-1.68,7.47-3.41a1.54,1.54,0,0,0,.93-1.4A1.82,1.82,0,0,0,60.94,29.32Zm-3.86.26c-1.36.59-2.72,1.21-4.06,1.85a.62.62,0,0,1-.76-.08,5.11,5.11,0,0,0-2.95-1.15,4.61,4.61,0,0,0-4.87,4.47,1,1,0,0,1-.7,1l-29,13.25-.46.21c-.26,0-.25-.29-.33-.46q-2.34-5.1-4.67-10.21c-1.8-3.92-3.58-7.84-5.4-11.75-.21-.46-.12-.59.31-.79q14.61-6.66,29.2-13.36a.67.67,0,0,1,.8.09A4.71,4.71,0,0,0,42.05,9a.6.6,0,0,1,.39-.59c1.38-.61,2.76-1.23,4.12-1.89.37-.18.49,0,.62.26L57.32,29C57.48,29.3,57.43,29.43,57.08,29.58Z"/>
            <path class="cls-1" d="M3.47,19.18c.07.29.21.29.47.22.71-.2,1.44-.39,2.17-.53.42-.08.52-.2.4-.65-.52-2-1-3.95-1.48-5.92-.09-.38-.13-.6.38-.72Q16.15,9,26.85,6.32l13-3.2c.42-.1.58-.24.42-.7A10.62,10.62,0,0,1,39.84.57C39.75,0,39.53-.08,39,.06Q24.45,3.66,9.9,7.23L2.75,9a1.58,1.58,0,0,0-1.33,1.63,1.53,1.53,0,0,0,0,.27Q2.46,15,3.47,19.18Z"/>
            <path class="cls-1" d="M18.23,26.42a6.8,6.8,0,1,0,7,6.54A6.85,6.85,0,0,0,18.23,26.42Zm0,10.55a3.75,3.75,0,1,1,3.94-3.58A3.78,3.78,0,0,1,18.27,37Z"/>
            <path class="cls-1" d="M36.19,21.41a.61.61,0,0,1,0-.12c-.37-.8-.73-1.6-1.09-2.39-.12-.28-.28-.18-.48-.09l-9.36,4.28c-.26.12-.31.23-.18.49.36.72.7,1.46,1,2.21.14.32.28.29.54.17l9.3-4.27C36,21.63,36.21,21.63,36.19,21.41Z"/>
            <path class="cls-1" d="M38.44,26.31c-.35-.74-.68-1.47-1-2.21-.11-.26-.22-.32-.49-.19L27.57,28.2c-.26.11-.33.21-.19.48.36.73.67,1.48,1,2.21.06.11.05.34.25.28l.17-.06,9.5-4.34C38.57,26.65,38.53,26.52,38.44,26.31Z"/>
            <path class="cls-1" d="M39.78,29.22c-.11-.25-.22-.33-.49-.21q-4.68,2.16-9.37,4.3c-.26.12-.33.22-.2.49.35.75.69,1.51,1,2.26,0,.11.08.28.27.21l.12,0,9.5-4.34c.25-.11.24-.24.13-.46C40.43,30.7,40.1,30,39.78,29.22Z"/>
            <path class="cls-1" d="M46,24.05c-.11-.26-.25-.24-.46-.15-.76.33-1.51.68-2.28,1-.27.11-.25.25-.16.45.48,1.08,1,2.16,1.43,3.24.09.23.18.29.43.18.77-.36,1.56-.69,2.34-1,.08,0,.23,0,.22-.19s-.05-.13-.08-.19C47,26.25,46.51,25.16,46,24.05Z"/>
            <path class="cls-1" d="M43.74,18.82a.61.61,0,0,1-.05-.12c-.49-1.12-1-2.24-1.47-3.37-.12-.28-.28-.2-.47-.12-.74.33-1.47.67-2.22,1-.28.12-.29.25-.18.5.48,1.06.94,2.12,1.39,3.18.1.25.19.34.48.2.75-.35,1.52-.66,2.27-1C43.59,19,43.77,19,43.74,18.82Z"/>
        </g>
    </g>
</svg>