<svg xmlns="http://www.w3.org/2000/svg" viewBox="0 0 58.79 52.87">
    <defs>
        <style>.cls-1{fill:#474765;}</style>
    </defs>
    <g id="Layer_2" data-name="Layer 2">
        <g id="Layer_1-2" data-name="Layer 1">
            <path class="cls-1" d="M57,26q-9.49-9.48-19-19A9.07,9.07,0,0,0,34.91,5C31,3.48,27.08,2,23.17.44a5.67,5.67,0,0,0-2-.38v0H19.44a.09.09,0,0,0,0,0A4.69,4.69,0,0,0,16.1,1.37c-3,2.68-5.76,5.54-8.51,8.43a6.42,6.42,0,0,0-1.34,7.36c.32.77.6,1.56.92,2.33a1.18,1.18,0,0,1-.24,1.33A33.79,33.79,0,0,0,.39,33.62c-.27,1-.21,2.05-.39,3.07v.37a3.74,3.74,0,0,1,0,2.07v.25a2.35,2.35,0,0,1,.11.83,5.29,5.29,0,0,0,7.7,4.4A19,19,0,0,0,14,39.38c.81-1,1.61-2,2.32-3,.25-.37.48-.39.76-.06.13.15.29.29.43.43q7,7,13.92,13.93A6.14,6.14,0,0,0,36,52.87a7.53,7.53,0,0,0,3.51-.53,8.16,8.16,0,0,0,2.07-1.51Q49,43.38,56.47,35.92a6.86,6.86,0,0,0,2.31-4.74A6.48,6.48,0,0,0,57,26Zm-36.7-6.48a8.32,8.32,0,0,0-5.64,2,21.85,21.85,0,0,0-4.28,4.67.76.76,0,0,0-.06.77,12.85,12.85,0,0,0,3.9,6.08c.21.18.37.34.14.66a33.09,33.09,0,0,1-6.24,7.07A6.43,6.43,0,0,1,6,42,2,2,0,0,1,3.5,41a5.82,5.82,0,0,1-.61-3,21.33,21.33,0,0,1,2.19-8.43,28.26,28.26,0,0,1,7.34-10.07,11.2,11.2,0,0,1,6.49-3c.32,0,.65,0,1,0a1.5,1.5,0,0,0,1.62-1.34,1.46,1.46,0,0,0-1.45-1.5,9.7,9.7,0,0,0-3.85.5c-.5.17-.53,0-.47-.42a4.9,4.9,0,1,1,4.61,5.73Zm9.83,20.06a6.11,6.11,0,0,1-5.9-6.5,4,4,0,0,1,4.26-3.6,6.18,6.18,0,0,1,5.81,5.77A4,4,0,0,1,30.17,39.62Zm11.31,3-1,.28-.14,0c-.53,0-.68-.37-.79-.76l-2-6.65q-1.83-6.18-3.64-12.37c-.32-1.08-.23-1.25.84-1.57l.46-.14c.74-.2,1-.08,1.21.67q2.43,8.22,4.84,16.45c.29,1,.58,2,.86,2.92C42.3,42.1,42.14,42.37,41.48,42.57Zm10.2-11.71a4,4,0,0,1-4.19,3.79,6.11,6.11,0,0,1-5.88-6.29,4,4,0,0,1,4-3.8A6.1,6.1,0,0,1,51.68,30.86Z"/>
            <path class="cls-1" d="M0,37.06v2.07A7.18,7.18,0,0,0,0,37.06Z"/>
            <path class="cls-1" d="M21,.06h.15a.14.14,0,0,0,0-.06H19.45a.06.06,0,0,1,0,.06H21Z"/>
            <path class="cls-1" d="M28.45,32a1.54,1.54,0,0,0-1.68,1.67,3.64,3.64,0,0,0,3.39,3.38,1.51,1.51,0,0,0,1.65-1.62A3.68,3.68,0,0,0,28.45,32Z"/>
            <path class="cls-1" d="M46.22,27.13a1.62,1.62,0,0,0-2.06,1.94,3.75,3.75,0,0,0,3.14,3.06,1.56,1.56,0,0,0,1.87-1.64A3.67,3.67,0,0,0,46.22,27.13Z"/>
        </g>
    </g>
</svg>