<svg xmlns="http://www.w3.org/2000/svg" viewBox="0 0 60.23 53.83">
    <defs>
        <style>.cls-1{fill:#474765;}.cls-2{fill:#fff;}</style>
    </defs>
    <g id="Layer_2" data-name="Layer 2">
        <g id="Layer_1-2" data-name="Layer 1">
            <path class="cls-1" d="M30.62,39H23s-7.79-5.46-7.79-12.88S19.32,9.8,31.17,9.8,45.93,21.68,45.93,24.89,42,39,37.65,39Z"/>
            <g id="_3s0dSg.tif" data-name="3s0dSg.tif">
                <path class="cls-1" d="M60.23,53.22c-.23-.13-.15-.35-.15-.54q0-12.18,0-24.36a.34.34,0,0,0,.14,0Z"/>
                <path class="cls-1" d="M60.16,52.41q0-11.64,0-23.27a1.91,1.91,0,0,0-.06-.82c-.17-.55-.62-.58-1.09-.58-2.33,0-4.67,0-7,0-.62,0-.64-.19-.61-.72a42.22,42.22,0,0,0-.27-9.92A21.11,21.11,0,0,0,32.77.14a20.48,20.48,0,0,0-17.28,6,20.24,20.24,0,0,0-6.19,14,65.51,65.51,0,0,0,.08,7.54H1.51c-1.32,0-1.51.2-1.51,1.54v23c0,1.38.18,1.55,1.55,1.55H58.64a2.15,2.15,0,0,0,1.59-.46v-.15A1.6,1.6,0,0,1,60.16,52.41ZM34.6,2.15C40.31,3.4,47.66,9.44,47.85,13,43.49,7.12,37.68,3.87,30.29,3.89S17.12,7.25,12.74,13.15A19.33,19.33,0,0,1,34.6,2.15Zm-16.78,8a19.3,19.3,0,0,1,26.81,1.63,18.65,18.65,0,0,1,5.1,14.32,19.21,19.21,0,0,1-4.56,11.46,1.23,1.23,0,0,1-1.09.49c-1.29,0-2.59,0-4,0A16.23,16.23,0,1,0,19,13.51,16.34,16.34,0,0,0,20.71,38.1c-1.28,0-2.42-.07-3.54,0a2.08,2.08,0,0,1-2-.92A19.51,19.51,0,0,1,17.82,10.2ZM52.4,37.68c0,.27-.06.42-.37.41-1.62,0-3.24,0-5,0a26.78,26.78,0,0,0,1.82-2.78.58.58,0,0,1,.6-.33c.83,0,1.65,0,2.48,0,.42,0,.5.14.49.52C52.37,36.23,52.39,37,52.4,37.68ZM36.92,38a1.74,1.74,0,0,1-.8.14H30.39c-1.9,0-3.81,0-5.72,0a2,2,0,0,1-1.07-.28c-5.48-3.17-8.09-7.93-7.64-14.24A14.5,14.5,0,1,1,36.92,38ZM7.8,35.43c0-.37.13-.45.48-.45,1,0,2.05,0,3.08,0a.54.54,0,0,1,.54.3,24.43,24.43,0,0,0,1.87,2.81c-2,0-3.74,0-5.51,0-.38,0-.47-.13-.46-.48Q7.83,36.53,7.8,35.43ZM8.34,52a8.72,8.72,0,0,1-3.12.11c-1,0-2,0-3,0-.36,0-.48-.1-.48-.47,0-2,0-3.92,0-5.88,0-.39.15-.44.49-.44H15.16l-4.53,4.52C9.88,50.61,9.25,51.63,8.34,52ZM11,52c0-.27.29-.39.45-.56l5.15-5.16c1.06-1.06,1.06-1.06,2.61-.93,0,.26-.23.36-.37.5l-5.41,5.43C12.49,52.26,12.43,52.27,11,52Zm12.41.09h-8s-.07,0-.13-.08c.09-.3.37-.46.57-.66,1.85-1.87,3.72-3.73,5.58-5.6a1.12,1.12,0,0,1,.89-.44c2.61,0,5.22,0,7.83,0l.45,0-6.48,6.46A.86.86,0,0,1,23.41,52.13Zm15.9,0c-4.24,0-8.48,0-12.72,0a.65.65,0,0,1-.19,0c0-.27.21-.35.34-.48,1.94-2,3.9-3.91,5.84-5.87a1.1,1.1,0,0,1,.84-.39H46.06l.43,0L43.86,48c-1.24,1.24-2.49,2.48-3.72,3.72A1.11,1.11,0,0,1,39.31,52.14Zm4.33,0H42.38c-.06-.32.2-.42.34-.56,1.78-1.8,3.61-3.56,5.35-5.4a2.28,2.28,0,0,1,2.09-.83,7.27,7.27,0,0,0,.85,0c-2.26,2.27-4.41,4.4-6.53,6.56C44.22,52.17,43.94,52.12,43.64,52.13Zm14.83-.55c0,.33,0,.56-.47.56-3.7,0-7.4,0-11.35,0l6.59-6.58a.74.74,0,0,1,.61-.21c1.38,0,2.76,0,4.13,0,.43,0,.49.15.49.52C58.45,47.77,58.46,49.67,58.47,51.58Zm0-8.42c0,.37-.13.49-.48.45a2.29,2.29,0,0,0-.37,0q-27.52,0-55.06,0c-.71,0-.84-.2-.84-.86q0-6.25,0-12.52c0-.59.11-.81.77-.8,2.2,0,4.41,0,6.62,0,.41,0,.65.06.73.51a21.81,21.81,0,0,0,1.07,3.34H7.48c-1.18,0-1.37.18-1.37,1.33v3.85c0,1.1.22,1.32,1.32,1.32H52.69c1.21,0,1.4-.19,1.4-1.4V34.56c0-1.05-.22-1.26-1.3-1.26H49.85A26.94,26.94,0,0,0,51,29.75c.07-.3.27-.3.51-.3q3.24,0,6.48,0c.4,0,.51.12.51.51Q58.46,36.56,58.47,43.16Z"/>
            </g>
            <path class="cls-2" d="M36.49,26.44h.92a.57.57,0,1,0,0-1.14c-.31,0-.61,0-.92,0-.09,0-.1,0-.14-.08s0,.08-.11.08h-1c-.11,0-.12-.06-.12-.15a7.51,7.51,0,0,0-.66-2.41,6.84,6.84,0,0,0-.92-1.45.55.55,0,0,0-.68-.16.56.56,0,0,0-.32.59.62.62,0,0,0,.17.32A6.18,6.18,0,0,1,34,25.15c0,.11,0,.16-.12.16H32c-.12,0-.15,0-.16-.16s0-.31-.05-.47a8.92,8.92,0,0,0-1.91-4.5.55.55,0,0,0-.83-.13.56.56,0,0,0,0,.83,7.64,7.64,0,0,1,1.11,1.86,8.56,8.56,0,0,1,.6,2.39c0,.08.05.18-.11.18H28.48c-.09,0-.12,0-.13-.12s-.05-.44-.09-.66a8.75,8.75,0,0,0-2.41-4.65.57.57,0,0,0-.75-.12,10.88,10.88,0,0,0-1.44.91,19.16,19.16,0,0,0-4.47,4.86.63.63,0,0,0,0,.75,21.31,21.31,0,0,0,2.52,3.16A14.19,14.19,0,0,0,24.94,32a.75.75,0,0,0,.78,0,1.62,1.62,0,0,0,.39-.3,7.84,7.84,0,0,0,2.25-5c0-.15.05-.2.21-.2h2c.11,0,.16,0,.15.14A7.2,7.2,0,0,1,29,30.83a.57.57,0,0,0,0,.85.57.57,0,0,0,.84-.11,7.47,7.47,0,0,0,1-1.42,8.56,8.56,0,0,0,1-3.56c0-.13.05-.16.17-.16.58,0,1.17,0,1.76,0,.19,0,.21.06.19.22a5.64,5.64,0,0,1-1.35,3.06.54.54,0,0,0-.15.3.57.57,0,0,0,.31.59.54.54,0,0,0,.66-.13,6.27,6.27,0,0,0,1.1-1.7,6.76,6.76,0,0,0,.56-2.16c0-.08,0-.18.11-.17h1c.07,0,.1,0,.09.08S36.4,26.43,36.49,26.44Zm-11,4.28a.21.21,0,0,1-.33.05,15.65,15.65,0,0,1-4-3.74c-.27-.34-.51-.69-.77-1a.15.15,0,0,1,0-.2,17.69,17.69,0,0,1,4.32-4.48c.16-.11.33-.2.48-.31s.16-.05.24,0a7.48,7.48,0,0,1,1.65,3.2A7.35,7.35,0,0,1,27.26,26,7,7,0,0,1,25.46,30.72Z"/>
            <path class="cls-2" d="M41.52,26.6a3,3,0,0,0-.73-.65c-.09-.06-.09-.1,0-.16a3.8,3.8,0,0,0,.38-.29A2.14,2.14,0,0,0,42,24.13a6.11,6.11,0,0,0-.41-3,4.62,4.62,0,0,0-.75-1.26l-1,1.14-3.43,4c-.06.07-.12.12-.06.22a6.76,6.76,0,0,0,.9,0,1.28,1.28,0,0,1,.43.06.58.58,0,0,1,.41.58.57.57,0,0,1-.41.56,1.28,1.28,0,0,1-.43.06,6.76,6.76,0,0,0-.9,0c-.05.08,0,.14,0,.2.21.23.41.47.61.7q1.91,2.22,3.82,4.43a.63.63,0,0,0,.19-.21,5.94,5.94,0,0,0,1-3.84A2,2,0,0,0,41.52,26.6Z"/>
            <path class="cls-2" d="M23.66,24.33a1.54,1.54,0,1,0,1.54,1.54A1.55,1.55,0,0,0,23.66,24.33Z"/>
        </g>
    </g>
</svg>