<svg xmlns="http://www.w3.org/2000/svg" viewBox="0 0 53.42 53.36"><defs><style>.cls-1{fill:#474765;}</style></defs><g id="Layer_2" data-name="Layer 2"><g id="Layer_1-2" data-name="Layer 1"><path class="cls-1" d="M53.3,23a25.85,25.85,0,0,0-2.78-8.73A27.37,27.37,0,0,0,45.4,7.51a26.72,26.72,0,0,0-10-6.15A27.49,27.49,0,0,0,25.13,0a25,25,0,0,0-6.65,1.19A26.93,26.93,0,0,0,.42,21.29,33.29,33.29,0,0,0,0,24.73v.83a5.2,5.2,0,0,1,0,2.29v.63c.09.6.05,1.2.12,1.8a25.46,25.46,0,0,0,2.43,8.13A27,27,0,0,0,21,52.91a27.09,27.09,0,0,0,3.7.45H28.8c.78-.12,1.58-.08,2.37-.21A26.46,26.46,0,0,0,47,44.29,26.21,26.21,0,0,0,53,32c.22-1,.26-2.08.39-3.12v-.42a1.33,1.33,0,0,1,0-1.15v-2.6C53.33,24.17,53.37,23.59,53.3,23ZM47.45,12.88l-3.88-1.49a1.59,1.59,0,0,1-.35-.22C41,9.57,38.82,8,36.61,6.37a8.06,8.06,0,0,1-1.77-1.68c-.49-.66-1-1.29-1.58-2A24.71,24.71,0,0,1,47.45,12.88ZM27.73,9l7.08-2.07a.7.7,0,0,1,.67.11q3.62,2.66,7.24,5.27a.62.62,0,0,1,.29.55q.09,3.69.22,7.38a.46.46,0,0,1-.34.53c-2.35,1-4.7,2.06-7,3.1a.56.56,0,0,1-.65-.09c-2.5-1.82-5-3.63-7.5-5.43a.73.73,0,0,1-.35-.69c0-1.35,0-2.7,0-4.05s0-2.74,0-4.11A.42.42,0,0,1,27.73,9ZM25.78,9a.43.43,0,0,1,.36.51c0,1.37,0,2.74,0,4.11s0,2.67,0,4a.67.67,0,0,1-.32.64Q22,21,18.15,23.85a.6.6,0,0,1-.69.08c-2.31-1-4.62-2-6.94-3.05a.44.44,0,0,1-.33-.49q.12-3.88.23-7.75a.51.51,0,0,1,.26-.46L18,7a.56.56,0,0,1,.57-.08ZM20.11,2.74a17.06,17.06,0,0,1-3.69,3.9C14.33,8,12.33,9.49,10.3,11a7.44,7.44,0,0,1-1.82,1c-.8.28-1.58.59-2.37.89A24.25,24.25,0,0,1,20.11,2.74ZM6.37,37.45c0,1.11-.09,2.21-.14,3.33-2.41-2-4.74-10.1-4.43-15.56.88,1.36,1.75,2.57,2.47,3.86a9.27,9.27,0,0,1,.62,2.18c.47,1.79.92,3.59,1.39,5.38A2.49,2.49,0,0,1,6.37,37.45ZM14.9,39.8c-2.34-1.13-4.69-2.23-7-3.34a.78.78,0,0,1-.49-.54C6.74,33.46,6.09,31,5.45,28.54a1.19,1.19,0,0,1,0-.26c0-.18.09-.29.18-.41,1.28-1.9,2.58-3.78,3.86-5.68a.41.41,0,0,1,.62-.18q3.45,1.54,6.9,3a.82.82,0,0,1,.48.56c.93,2.88,1.86,5.75,2.81,8.63a.6.6,0,0,1-.17.72c-1.49,1.55-3,3.12-4.44,4.69A.53.53,0,0,1,14.9,39.8Zm1.15,9.5c1-.19,1.77-.32,2.57-.52a18.24,18.24,0,0,1,4.6-.4c2.29,0,4.59.06,6.88,0a24.33,24.33,0,0,1,6.08.67,4.57,4.57,0,0,1,.94.27A25,25,0,0,1,16.05,49.3Zm21.32-8.18q-1.78,2.79-3.54,5.63a.74.74,0,0,1-.74.39H20.37a.64.64,0,0,1-.63-.32Q18,44,16.26,41.28a.38.38,0,0,1,0-.57c1.46-1.53,2.92-3.06,4.36-4.61a.77.77,0,0,1,.65-.23c3.59,0,7.19,0,10.78,0a1.71,1.71,0,0,1,1.46.66c1.23,1.34,2.49,2.66,3.75,4A.43.43,0,0,1,37.37,41.12ZM46,35.91a.8.8,0,0,1-.48.6c-2.26,1.06-4.51,2.12-6.75,3.2a.47.47,0,0,1-.66-.14c-1.55-1.66-3.12-3.31-4.69-5a.6.6,0,0,1-.16-.72c.92-2.81,1.84-5.62,2.74-8.43a.84.84,0,0,1,.53-.57c2.25-1,4.51-2,6.75-3,.3-.14.44-.09.62.18,1.32,2,2.67,3.93,4,5.89.1.14.25.26.19.41-.34,1.22-.66,2.39-1,3.55C46.77,33.28,46.39,34.59,46,35.91Zm1.3,4.77c0-2-.44-3.89.25-5.83.6-1.69,1-3.46,1.47-5.19A5.4,5.4,0,0,1,49.79,28c.61-.89,1.18-1.8,1.85-2.82A24.54,24.54,0,0,1,47.33,40.68Z"/><path class="cls-1" d="M0,25.56v2.29A9.74,9.74,0,0,0,0,25.56Z"/><path class="cls-1" d="M53.42,28.48V27.33A2.48,2.48,0,0,0,53.42,28.48Z"/></g></g></svg>