<svg xmlns="http://www.w3.org/2000/svg" viewBox="0 0 52.93 53.05">
    <defs>
        <style>.cls-1{fill:#474765;}</style>
    </defs>
    <g id="Layer_2" data-name="Layer 2">
        <g id="Layer_1-2" data-name="Layer 1">
            <path class="cls-1" d="M52.14,44.49a24.86,24.86,0,0,0-8-12.34,23.7,23.7,0,0,0-8-4.49c-.14-.05-.35-.06-.37-.24s.18-.24.29-.34a16.32,16.32,0,0,0,2.81-3,14.94,14.94,0,0,0,2.59-11.65,14.69,14.69,0,0,0-5.07-8.81A13.9,13.9,0,0,0,27.15.06s0,0,0,0H25.72s0,0,0,0a11.15,11.15,0,0,0-2.31.19A14.82,14.82,0,0,0,14.85,5.3a14.82,14.82,0,0,0-3.56,11.55A14.92,14.92,0,0,0,16.83,27c.13.11.36.2.34.39s-.27.19-.43.24A24.92,24.92,0,0,0,.57,45.21,25.23,25.23,0,0,0,0,49v2.71A1.65,1.65,0,0,0,1.86,53H51a1.71,1.71,0,0,0,1.94-1.9A22.61,22.61,0,0,0,52.14,44.49Zm-37-29.25A11.33,11.33,0,1,1,26.38,26.55,11.33,11.33,0,0,1,15.11,15.24Zm33.33,34h-22q-11,0-22,0c-.54,0-.6-.16-.54-.63A20.85,20.85,0,0,1,20.53,30.72,16.48,16.48,0,0,1,24,30.34a49.23,49.23,0,0,1,7.18.21A20.84,20.84,0,0,1,49,48.64C49,49.09,48.93,49.23,48.44,49.22Z"/>
            <path class="cls-1" d="M27.11.06h0a.13.13,0,0,1,0-.06H25.73V.06h1.38Z"/>
        </g>
    </g>
</svg>