<svg xmlns="http://www.w3.org/2000/svg" viewBox="0 0 53.78 53.83">
    <defs>
        <style>.cls-1{fill:#E57D07;}</style>
    </defs>
    <g id="Layer_2" data-name="Layer 2">
        <g id="Layer_1-2" data-name="Layer 1">
            <path class="cls-1" d="M53.74,4.83a5.59,5.59,0,0,0-.3-1.67,4.86,4.86,0,0,0-1.51-2.07,4.28,4.28,0,0,0-2.27-1c-.53,0-1.06,0-1.58-.07q-1.24,0-2.49,0H21.82Q14.94,0,8,0a1.36,1.36,0,0,1-.35,0c-.66,0-1.31,0-2,0-.29,0-.58,0-.87,0A5.62,5.62,0,0,0,3.12.34a4.94,4.94,0,0,0-2,1.43,4.45,4.45,0,0,0-1.09,3,4.57,4.57,0,0,1,0,.83H0V14c0,.35,0,.7,0,1.06s0,.84,0,1.26v1.31A.48.48,0,0,0,0,18a4,4,0,0,1,.05,1,3.77,3.77,0,0,0,.17,1.21,4.49,4.49,0,0,0,2.94,3,6,6,0,0,0,2,.23,5.92,5.92,0,0,1,.94,0,2.77,2.77,0,0,1,.41,0,.19.19,0,0,0,.23-.16c.24-1,.47-2,.73-2.94,0-.18,0-.25-.17-.25l-.78,0c-.2,0-.41,0-.61,0a10.53,10.53,0,0,1-1.25,0,1.33,1.33,0,0,1-1.16-.93A3.75,3.75,0,0,1,3.4,18a7.5,7.5,0,0,1,0-1.34v-1c0-1.14,0-2.28,0-3.42,0-1.45,0-2.91,0-4.37v-1a7.39,7.39,0,0,1,0-1.33,5.38,5.38,0,0,1,.06-1,1.17,1.17,0,0,1,1.14-1c.75-.05,1.5-.1,2.25-.08s1.73,0,2.6,0H44.34c.87,0,1.73,0,2.6,0,.7,0,1.4,0,2.09.07a1.18,1.18,0,0,1,1.25,1,3.86,3.86,0,0,1,.11,1.07,7.08,7.08,0,0,1,0,1.22v.93c-.11.23,0,.46,0,.69,0,2.28,0,4.57,0,6.86,0,.15-.12.31,0,.46v1a9.26,9.26,0,0,1,0,1.39c0,.24,0,.48-.06.72a1.36,1.36,0,0,1-1,1.31,5.71,5.71,0,0,1-1.43.1,1,1,0,0,1-.3,0h-.35l-.79,0h0c-.19,0-.17.1-.14.23.22.89.43,1.78.66,2.67.11.45.12.44.62.44a2.92,2.92,0,0,1,.78,0,9.21,9.21,0,0,0,1.89-.14A4.38,4.38,0,0,0,53,21.43a12.55,12.55,0,0,0,.76-1.62c0-1,0-2,0-3s0-2.05,0-3.07V10.41a.17.17,0,0,1,.05-.15V5.6a.43.43,0,0,1,0-.11A2.92,2.92,0,0,1,53.74,4.83Z"/>
            <path class="cls-1" d="M47.79,0l.29,0A1,1,0,0,0,47.79,0Z"/>
            <path class="cls-1" d="M7.17,20.17l.14,0A.34.34,0,0,0,7.17,20.17Z"/>
            <path class="cls-1" d="M6.92,53.78H6.76v0H47v0H6.92Z"/>
            <path class="cls-1" d="M53.76,10.56c0,1,0,2.11,0,3.16h0V10.26A.61.61,0,0,0,53.76,10.56Z"/>
            <path class="cls-1" d="M53.75,13.74v3h0V13.72S53.76,13.74,53.75,13.74Z"/>
            <path class="cls-1" d="M53.75,13.73h0Z"/>
            <path class="cls-1" d="M53.75,16.81v2.74a.58.58,0,0,1,0,.26h.05v-3S53.76,16.81,53.75,16.81Z"/>
            <path class="cls-1" d="M53.75,16.8h0Z"/>
            <path class="cls-1" d="M53.74,4.83c0,.22,0,.44,0,.66,0,0,0,.07,0,.11V4.83Z"/>
            <path class="cls-1" d="M6.91,40.29h.6c.89,0,1.77,0,2.65,0H46.92c.12,0,.13-.07.11-.16-.19-.91-.38-1.83-.56-2.74s-.39-1.93-.59-2.9-.39-1.93-.59-2.89-.37-1.92-.56-2.88-.36-1.74-.53-2.61l-.57-2.85c-.19-.95-.37-1.91-.56-2.87s-.4-2-.59-2.92l-.57-2.85c-.19-1-.39-1.93-.58-2.9S41,10,40.8,9.16s-.32-1.6-.47-2.41H13.41c-.08.39-.15.77-.22,1.16-.2.95-.4,1.9-.59,2.85-.16.77-.31,1.55-.46,2.32s-.34,1.73-.52,2.6l-.57,2.86c-.19,1-.38,1.94-.58,2.9s-.41,2.1-.63,3.15-.4,1.94-.59,2.92-.34,1.73-.51,2.59-.3,1.54-.46,2.31-.34,1.53-.47,2.3c-.17,1-.39,2-.58,3-.15.83-.32,1.66-.48,2.49C6.74,40.29,6.82,40.29,6.91,40.29Zm10-13.61h3a3.35,3.35,0,0,1,.95,0h1c.12,0,.18,0,.19.16a2.74,2.74,0,0,0,1.82,2.44,9.5,9.5,0,0,0,1.86.57c.14-.08.11-.22.11-.34V25c-.79-.19-1.58-.4-2.38-.55a10.47,10.47,0,0,1-4.33-1.72,2.13,2.13,0,0,1-1-1.75,2.81,2.81,0,0,1,.85-2.08,6,6,0,0,1,1.56-1.14,8.93,8.93,0,0,1,2-.66,20.53,20.53,0,0,1,2.7-.44l.82-.12v-1c0-.08,0-.17,0-.23h0l0,0h1.69c.06,0,.14,0,.16,0,0,.32,0,.64,0,1s.1.29.3.31a23.71,23.71,0,0,1,3.45.6A6.3,6.3,0,0,1,34.76,19a3.31,3.31,0,0,1,.85,1.49H31c-.18,0-.27,0-.32-.22a2.19,2.19,0,0,0-1.63-1.43A7.31,7.31,0,0,0,28,18.67c-.13,0-.08.09-.08.15v1c0,.65,0,1.3,0,1.95,0,.17.06.23.22.26.78.13,1.56.3,2.33.47s1.73.41,2.6.62a6,6,0,0,1,2.8,1.47,4.28,4.28,0,0,1,1.34,2.52,3,3,0,0,1-.89,2.74,9.78,9.78,0,0,1-2.82,1.77,9.29,9.29,0,0,1-2.77.81l-1.8.23-.65.06c-.23,0-.25.18-.25.35v2c0,.08-.12.06-.19.06H25.72c-.07,0-.15,0-.19-.07,0-.64,0-1.28,0-1.92,0-.29-.11-.36-.34-.37a16,16,0,0,1-2.65-.39,13.81,13.81,0,0,1-2.74-.85,5.25,5.25,0,0,1-1.66-1.05,4.32,4.32,0,0,1-1.06-1.84A5.31,5.31,0,0,1,16.81,27a.45.45,0,0,0,0-.16C16.69,26.68,16.79,26.68,16.9,26.68Z"/>
            <polygon class="cls-1" points="7.51 40.3 7.52 40.31 7.52 40.31 7.51 40.3"/>
            <path class="cls-1" d="M47.06,52.8a.92.92,0,0,1,0-.16c0-.21,0-.41,0-.62s0-.71,0-1.07l0-.52H6.76a3.87,3.87,0,0,0,0,.48v.4c0,.16,0,.32,0,.48s0,.57,0,.86V53c0,.26,0,.52,0,.79h0A.37.37,0,0,1,7,53.69H46.4c.2,0,.41-.06.58.1a0,0,0,0,1,.05,0l0-.26C47.06,53.28,47.05,53,47.06,52.8Z"/>
            <path class="cls-1" d="M6.74,44c0,.91,0,1.83,0,2.74,0,.25.07.32.32.32H46.7c.19,0,.28,0,.32,0l0-.05a2.46,2.46,0,0,0,0-.28c0-1,0-2,0-3-.11-.07-.23,0-.34,0H6.78A.48.48,0,0,0,6.74,44Z"/>
            <path class="cls-1" d="M47,43.73c0,.68,0,1.36,0,2,0,.37,0,.73,0,1.1a.37.37,0,0,1,0,.11s0,0,0,.05a.18.18,0,0,1-.16,0H6.91c-.13,0-.18,0-.18-.17v-3.1a.09.09,0,0,1,0-.09c-.14,0-.08.17-.08.25,0,.93,0,1.87,0,2.8,0,.29.09.34.35.34,5.32,0,10.63,0,15.94,0q11.9,0,23.79,0c.26,0,.33-.07.33-.33,0-.92,0-1.83,0-2.75C47.09,43.92,47.14,43.81,47,43.73Z"/>
            <path class="cls-1" d="M7.05,50.4H46.68a1,1,0,0,1,.3,0c-.09-.08-.19,0-.29,0H7c-.09,0-.2,0-.28,0A.58.58,0,0,1,7.05,50.4Z"/>
            <path class="cls-1" d="M13.7,6.73H40a.61.61,0,0,1,.3,0c-.07-.09-.17,0-.25,0H13.65c-.08,0-.18-.06-.24,0A.57.57,0,0,1,13.7,6.73Z"/>
            <path class="cls-1" d="M0,17.27c0-.73,0-1.45,0-2.17,0-.36,0-.71,0-1.06,0,1.18,0,2.37,0,3.56a.15.15,0,0,0,0,.07A1.08,1.08,0,0,1,0,17.27Z"/>
            <path class="cls-1" d="M47,50.43l0,0c0,.16,0,.32,0,.47V52.8c0,.24,0,.48,0,.72a1.47,1.47,0,0,0,0,.21l0,.05c.1,0,.06-.13.06-.19v-3C47.09,50.55,47.13,50.47,47,50.43Z"/>
            <path class="cls-1" d="M6.73,53.62v-3a.23.23,0,0,1,0-.16c-.1,0-.06.12-.06.19v3c0,.06,0,.15.06.19A.23.23,0,0,1,6.73,53.62Z"/>
            <path class="cls-1" d="M7.53,40.31h2.63C9.28,40.29,8.41,40.32,7.53,40.31Z"/>
            <path class="cls-1" d="M44.35,3.38a0,0,0,0,0,0,0h2.58C46.07,3.36,45.21,3.39,44.35,3.38Z"/>
            <path class="cls-1" d="M6.85,3.39H9.43a0,0,0,0,0,0,0C8.58,3.39,7.72,3.36,6.85,3.39Z"/>
            <path class="cls-1" d="M47.75,0h0c-.73,0-1.46,0-2.2,0C46.31.05,47,0,47.75,0Z"/>
            <path class="cls-1" d="M7.57,0H8c-.42,0-.85,0-1.28,0a5.18,5.18,0,0,0-1,0C6.33,0,7,0,7.57,0Z"/>
            <path class="cls-1" d="M44.33,3.38h0c-.62,0-1.23,0-1.85,0a.2.2,0,0,0,.15,0h1.73S44.33,3.39,44.33,3.38Z"/>
            <path class="cls-1" d="M44.34,3.38h0s0,0,0,0v0Z"/>
            <path class="cls-1" d="M9.46,3.38h0c.45,0,.9,0,1.35,0a1.07,1.07,0,0,0,.53,0C10.69,3.4,10.08,3.37,9.46,3.38Z"/>
            <path class="cls-1" d="M9.45,3.38h0v0s0,0,0,0Z"/>
            <path class="cls-1" d="M47.22,20.17l.65,0a6.31,6.31,0,0,0-1.44,0h0A7,7,0,0,1,47.22,20.17Z"/>
            <path class="cls-1" d="M7,20.17h.16a7.46,7.46,0,0,0-1.25,0l.61,0Z"/>
            <path class="cls-1" d="M50.41,16.64h0V18C50.43,17.56,50.4,17.1,50.41,16.64Z"/>
            <path class="cls-1" d="M3.38,6.8h0V5.48C3.36,5.92,3.39,6.36,3.38,6.8Z"/>
            <path class="cls-1" d="M3.4,18V16.7h0C3.39,17.13,3.36,17.58,3.4,18Z"/>
            <path class="cls-1" d="M50.41,6.69c0-.4,0-.81,0-1.21v1.2h0Z"/>
            <path class="cls-1" d="M3.38,16.68h0a0,0,0,0,1,0,0,4.7,4.7,0,0,0,0-1.06C3.4,16,3.37,16.33,3.38,16.68Z"/>
            <path class="cls-1" d="M3.38,16.68h0Z"/>
            <path class="cls-1" d="M3.38,6.81c0,.35,0,.69,0,1a4.7,4.7,0,0,0,0-1.06h0S3.39,6.81,3.38,6.81Z"/>
            <path class="cls-1" d="M3.38,6.81h0Z"/>
            <path class="cls-1" d="M50.41,16.62a8.06,8.06,0,0,1,0-1,3.79,3.79,0,0,0,0,1h0S50.4,16.63,50.41,16.62Z"/>
            <path class="cls-1" d="M50.41,16.63h0s0,0,0,0h0Z"/>
            <path class="cls-1" d="M6.75,40.17c-.08.12,0,.16.1.16h.06C6.82,40.3,6.71,40.32,6.75,40.17Z"/>
            <path class="cls-1" d="M5.17,23.49a3.3,3.3,0,0,0,.94,0C5.8,23.48,5.48,23.55,5.17,23.49Z"/>
            <path class="cls-1" d="M50.41,6.71l0,0a3.3,3.3,0,0,0,0,.94A7.1,7.1,0,0,1,50.41,6.71Z"/>
            <path class="cls-1" d="M50.41,6.7h0Z"/>
            <path class="cls-1" d="M.06,4.78a2.56,2.56,0,0,0,0,.83H0C.07,5.34,0,5.05.06,4.78Z"/>
            <path class="cls-1" d="M47.57,23.53a2.28,2.28,0,0,0,.78,0C48.09,23.55,47.83,23.48,47.57,23.53Z"/>
            <path class="cls-1" d="M25.85,29.71V25.19c0-.05,0-.13-.05-.16v0c0,1.56,0,3.12,0,4.68a.15.15,0,0,1-.14.17C25.86,29.93,25.85,29.82,25.85,29.71Z"/>
            <path class="cls-1" d="M25.68,35.09h2.21c.05,0,.11,0,.15,0H25.53C25.57,35.11,25.63,35.09,25.68,35.09Z"/>
            <path class="cls-1" d="M19.93,26.72s0,0,0,0c-.82,0-1.65,0-2.47,0C18.28,26.75,19.11,26.73,19.93,26.72Z"/>
            <path class="cls-1" d="M26.08,15.35h1.85C27.31,15.31,26.7,15.35,26.08,15.35Z"/>
            <path class="cls-1" d="M26.07,16.36c0-.33,0-.66,0-1h0a.61.61,0,0,0,0,.3,6.77,6.77,0,0,1,0,.9C26.12,16.52,26.07,16.43,26.07,16.36Z"/>
            <path class="cls-1" d="M26.07,15.37h0a.06.06,0,0,1,0,0l0,0A0,0,0,0,0,26.07,15.37Z"/>
            <path class="cls-1" d="M19.93,26.7a0,0,0,0,1,0,0h.93A7.22,7.22,0,0,0,19.93,26.7Z"/>
            <path class="cls-1" d="M19.92,26.7h0s0,0,0,0,0,0,0,0Z"/>
            <path class="cls-1" d="M28.92,29.85a6.6,6.6,0,0,0,2.28-.8,1.86,1.86,0,0,0,.88-1.44,1.26,1.26,0,0,0-.37-1,2.28,2.28,0,0,0-.9-.56c-.78-.23-1.57-.44-2.37-.62-.33-.07-.34-.06-.34.28,0,1.2,0,2.41.16,3.61C28.31,30,28.32,30,28.92,29.85Z"/>
            <path class="cls-1" d="M25.85,20.57c0-.46,0-.93,0-1.4,0-.19-.07-.28-.28-.24s-.36,0-.54.07a2.56,2.56,0,0,0-1.84.91.91.91,0,0,0,.33,1.5,6.62,6.62,0,0,0,2.23.62c.15,0,.14,0,.14-.14Z"/>
        </g>
    </g>
</svg>